<svg width="70" height="70" viewBox="0 0 70 70" fill="none" xmlns="http://www.w3.org/2000/svg">
<g clip-path="url(#clip0)">
<path d="M61.2499 23.334C57.0207 23.334 54.6582 27.534 55.6207 30.6548L45.2666 41.0381C44.3916 40.7756 43.1082 40.7756 42.2332 41.0381L34.7957 33.6006C35.7874 30.4798 33.4249 26.2507 29.1666 26.2507C24.9374 26.2507 22.5457 30.4507 23.5374 33.6006L10.2374 46.8715C7.11657 45.909 2.91656 48.2715 2.91656 52.5006C2.91656 55.709 5.54157 58.334 8.7499 58.334C12.9791 58.334 15.3416 54.134 14.3791 51.0131L27.6499 37.7131C28.5249 37.9756 29.8082 37.9756 30.6832 37.7131L38.1207 45.1506C37.1291 48.2715 39.4916 52.5006 43.7499 52.5006C47.9791 52.5006 50.3707 48.3006 49.3791 45.1506L59.7624 34.7965C62.8832 35.759 67.0832 33.3965 67.0832 29.1673C67.0832 25.959 64.4582 23.334 61.2499 23.334Z" fill="rgb(108, 117, 125)"/>
<path d="M43.75 26.25L46.4917 20.2125L52.5 17.5L46.4917 14.7875L43.75 8.75L41.0667 14.7875L35 17.5L41.0667 20.2125L43.75 26.25Z" fill="rgb(108, 117, 125)"/>
<path d="M10.2082 32.0833L11.6666 26.25L17.4999 24.7917L11.6666 23.3333L10.2082 17.5L8.7499 23.3333L2.91656 24.7917L8.7499 26.25L10.2082 32.0833Z" fill="rgb(108, 117, 125)"/>
<circle cx="55" cy="52" r="15" fill="#FAFBFE"/>
<path d="M48.2497 50.4223L53.5593 56.1178L62.2346 47.5" stroke="#7876F2" stroke-width="4" stroke-linecap="round" stroke-linejoin="round"/>
</g>
<defs>
<clipPath id="clip0">
<rect width="70" height="70" fill="white"/>
</clipPath>
</defs>
</svg>
