<svg width="70" height="70" viewBox="0 0 70 70" fill="none" xmlns="http://www.w3.org/2000/svg">
<g clip-path="url(#clip0)">
<path d="M54.05 37.0977H49.2551C49.7439 38.4358 50.0109 39.8798 50.0109 41.3849V59.5068C50.0109 60.1343 49.9017 60.7366 49.7029 61.2968H57.6299C60.5911 61.2968 63 58.8877 63 55.9267V46.0477C63.0001 41.1127 58.9851 37.0977 54.05 37.0977Z" fill="rgb(108, 117, 125)"/>
<path d="M13.989 41.3849C13.989 39.8797 14.256 38.4358 14.7447 37.0977H9.94983C5.01472 37.0977 0.999695 41.1127 0.999695 46.0478V55.9268C0.999695 58.8879 3.40864 61.2969 6.36978 61.2969H14.2969C14.0982 60.7365 13.989 60.1343 13.989 59.5068V41.3849Z" fill="rgb(108, 117, 125)"/>
<path d="M37.4809 32.4336H26.5191C21.584 32.4336 17.569 36.4486 17.569 41.3837V59.5056C17.569 60.4941 18.3704 61.2956 19.359 61.2956H44.641C45.6296 61.2956 46.431 60.4942 46.431 59.5056V41.3837C46.431 36.4486 42.416 32.4336 37.4809 32.4336Z" fill="rgb(108, 117, 125)"/>
<path d="M32.0005 8.70312C26.0654 8.70312 21.2368 13.5317 21.2368 19.4669C21.2368 23.4927 23.4588 27.0087 26.7402 28.8547C28.2967 29.7302 30.091 30.2306 32.0005 30.2306C33.9099 30.2306 35.7043 29.7302 37.2607 28.8547C40.5423 27.0087 42.7641 23.4926 42.7641 19.4669C42.7641 13.5318 37.9356 8.70312 32.0005 8.70312Z" fill="rgb(108, 117, 125)"/>
<path d="M13.0992 18.7344C8.66049 18.7344 5.04944 22.3454 5.04944 26.7842C5.04944 31.2229 8.66049 34.834 13.0992 34.834C14.2252 34.834 15.2973 34.6007 16.2713 34.1815C17.9553 33.4565 19.3437 32.1731 20.2029 30.5656C20.806 29.4374 21.149 28.1502 21.149 26.7842C21.149 22.3456 17.538 18.7344 13.0992 18.7344Z" fill="rgb(108, 117, 125)"/>
<path d="M50.9007 18.7344C46.462 18.7344 42.851 22.3454 42.851 26.7842C42.851 28.1504 43.194 29.4375 43.7971 30.5656C44.6562 32.1733 46.0447 33.4566 47.7287 34.1815C48.7026 34.6007 49.7748 34.834 50.9007 34.834C55.3395 34.834 58.9505 31.2229 58.9505 26.7842C58.9505 22.3454 55.3395 18.7344 50.9007 18.7344Z" fill="rgb(108, 117, 125)"/>
<circle cx="55" cy="52" r="15" fill="#FAFBFE"/>
<path d="M48.2497 50.4223L53.5593 56.1178L62.2346 47.5" stroke="#7876F2" stroke-width="4" stroke-linecap="round" stroke-linejoin="round"/>
</g>
<defs>
<clipPath id="clip0">
<rect width="70" height="70" fill="white"/>
</clipPath>
</defs>
</svg>
