<svg width="70" height="70" viewBox="0 0 70 70" fill="none" xmlns="http://www.w3.org/2000/svg">
<path d="M33.0979 5.8541C33.6966 4.01147 36.3034 4.01148 36.9021 5.8541L42.409 22.8024C42.6767 23.6265 43.4446 24.1844 44.3111 24.1844L62.1316 24.1844C64.0691 24.1844 64.8746 26.6636 63.3072 27.8024L48.8901 38.2771C48.1891 38.7864 47.8958 39.6891 48.1635 40.5132L53.6704 57.4615C54.2691 59.3041 52.1601 60.8364 50.5927 59.6976L36.1756 49.2229C35.4746 48.7136 34.5254 48.7136 33.8244 49.2229L19.4073 59.6976C17.8399 60.8364 15.7309 59.3041 16.3296 57.4615L21.8365 40.5132C22.1042 39.6891 21.8109 38.7864 21.1099 38.2771L6.69281 27.8024C5.12538 26.6636 5.93094 24.1844 7.86839 24.1844L25.6889 24.1844C26.5554 24.1844 27.3233 23.6265 27.591 22.8024L33.0979 5.8541Z" fill="rgb(108, 117, 125)"/>
<circle cx="55" cy="55" r="15" fill="#FAFBFE"/>
<path d="M48.2497 53.4223L53.5593 59.1178L62.2346 50.5" stroke="#7876F2" stroke-width="4" stroke-linecap="round" stroke-linejoin="round"/>
</svg>
