<svg width="106" height="106" viewBox="0 0 106 106" fill="none" xmlns="http://www.w3.org/2000/svg">
<g clip-path="url(#clip0)">
<path d="M92.75 4.41602H13.25C5.94483 4.41602 0 10.3608 0 17.666V88.3327C0 95.6378 5.94483 101.583 13.25 101.583H92.75C100.055 101.583 106 95.6378 106 88.3327V17.666C106 10.3608 100.055 4.41602 92.75 4.41602ZM92.75 92.7493H13.25C10.8164 92.7493 8.83333 90.7707 8.83333 88.3327V26.4993H97.1667V88.3327C97.1667 90.7707 95.1836 92.7493 92.75 92.7493Z" fill="#EEF2F7"/>
<path d="M87.6443 59.4616C79.7826 47.117 66.8374 39.75 53 39.75C39.1625 39.75 26.2173 47.117 18.3556 59.4616C17.437 60.9103 17.437 62.7564 18.3556 64.2051C26.2173 76.5497 39.1625 83.9167 53 83.9167C66.8374 83.9167 79.7826 76.5497 87.6443 64.2051C88.563 62.7564 88.563 60.9103 87.6443 59.4616ZM53 70.6667C48.1195 70.6667 44.1666 66.7138 44.1666 61.8333C44.1666 56.9529 48.1195 53 53 53C57.8804 53 61.8333 56.9529 61.8333 61.8333C61.8333 66.7138 57.8804 70.6667 53 70.6667Z" fill="#7876F2"/>
</g>
<defs>
<clipPath id="clip0">
<rect width="106" height="106" fill="white"/>
</clipPath>
</defs>
</svg>
