<svg width="106" height="106" viewBox="0 0 106 106" fill="none" xmlns="http://www.w3.org/2000/svg">
<path d="M53.6027 41.8238C55.3522 41.8238 57.0196 42.1895 58.5354 42.8473C58.6491 40.3739 59.5017 38.0866 60.8693 36.1931C59.9063 35.9919 58.9131 35.8848 57.896 35.8848H48.2598C47.2449 35.8848 46.2517 35.9908 45.2963 36.1899C46.7537 38.2121 47.6247 40.6801 47.6388 43.3526C49.41 42.3788 51.4419 41.8238 53.6027 41.8238Z" fill="#EEF2F7"/>
<path d="M53.0758 35.1095C59.3478 35.1095 64.4323 30.025 64.4323 23.753C64.4323 17.481 59.3478 12.3965 53.0758 12.3965C46.8037 12.3965 41.7192 17.481 41.7192 23.753C41.7192 30.025 46.8037 35.1095 53.0758 35.1095Z" fill="#EEF2F7"/>
<path d="M70.9123 54.4881C76.6922 54.4881 81.3751 49.8031 81.3751 44.0253C81.3751 38.2453 76.6922 33.5625 70.9123 33.5625C65.1864 33.5625 60.5436 38.162 60.457 43.8673C63.756 45.9361 66.0693 49.4352 66.4913 53.497C67.8351 54.1267 69.3293 54.4881 70.9123 54.4881Z" fill="#7876F2"/>
<path d="M35.2414 33.5605C29.4603 33.5605 24.7775 38.2445 24.7775 44.0233C24.7775 49.8022 29.4603 54.4851 35.2414 54.4851C37.2885 54.4851 39.1917 53.8867 40.806 52.8708C41.32 49.5263 43.1128 46.6017 45.6739 44.6109C45.6847 44.415 45.7031 44.2214 45.7031 44.0233C45.7031 38.2445 41.0181 33.5605 35.2414 33.5605Z" fill="#7876F2"/>
<path d="M77.7082 33.3389C81.0072 35.4077 83.3205 38.9068 83.7413 42.9697C85.0841 43.5983 86.5794 43.9608 88.1623 43.9608C93.9423 43.9608 98.6251 39.2768 98.6251 33.498C98.6251 27.7191 93.9423 23.0352 88.1623 23.0352C82.4376 23.0341 77.7947 27.6347 77.7082 33.3389Z" fill="#EEF2F7"/>
<path d="M53.6027 65.2911C59.3817 65.2911 64.0666 60.6062 64.0666 54.8272C64.0666 49.0481 59.3817 44.3633 53.6027 44.3633C47.8236 44.3633 43.1388 49.0481 43.1388 54.8272C43.1388 60.6062 47.8236 65.2911 53.6027 65.2911Z" fill="#7876F2"/>
<path d="M75.3527 55.2012H66.5411C66.4448 58.7263 64.9408 61.9008 62.5604 64.1827C69.1259 66.1368 73.931 72.2262 73.931 79.4193V82.7648C82.6302 82.4434 87.6441 79.9808 87.9741 79.812L88.6731 79.4571H88.7456V68.5983C88.7477 61.2105 82.7384 55.2012 75.3527 55.2012Z" fill="#7876F2"/>
<path d="M92.6018 44.6738H83.7922C83.697 48.1989 82.192 51.3735 79.8127 53.6554C86.3782 55.6095 91.1822 61.6978 91.1822 68.8908V72.2363C99.8803 71.9161 104.895 69.4535 105.225 69.2836L105.924 68.9298H105.999V58.071C105.999 50.6843 99.9895 44.6738 92.6018 44.6738Z" fill="#EEF2F7"/>
<path d="M44.6384 64.1808C42.27 61.9097 40.7703 58.7525 40.66 55.2501C40.3343 55.2263 40.0108 55.1992 39.6775 55.1992H30.802C23.4142 55.1992 17.4037 61.2096 17.4037 68.5974V79.4573L17.4308 79.625L18.1785 79.8609C23.834 81.6278 28.8825 82.4393 33.2657 82.6968V79.4173C33.2678 72.2253 38.0708 66.1359 44.6384 64.1808Z" fill="#7876F2"/>
<path d="M58.041 66.0039H49.1622C41.7744 66.0039 35.764 72.0165 35.764 79.4011V90.2609L35.7921 90.4308L36.5387 90.6645C43.5889 92.8664 49.714 93.6021 54.7539 93.6021C64.6011 93.6021 70.3075 90.7944 70.6602 90.6158L71.3592 90.2609H71.4327V79.4011C71.436 72.0143 65.4266 66.0039 58.041 66.0039Z" fill="#7876F2"/>
<path d="M17.8376 44.2939C19.4205 44.2939 20.9148 43.9314 22.2586 43.3028C22.6806 39.2399 24.9928 35.7397 28.2918 33.6709C28.2052 27.9678 23.5624 23.3672 17.8376 23.3672C12.0566 23.3672 7.37372 28.0511 7.37372 33.8311C7.37372 39.61 12.0566 44.2939 17.8376 44.2939Z" fill="#EEF2F7"/>
<path d="M26.1862 53.9896C23.808 51.7077 22.303 48.5321 22.2078 45.0059H13.3971C6.00935 45.0069 0 51.0174 0 58.4041V69.264H0.074657L0.77362 69.6178C1.10471 69.7844 6.11755 72.2503 14.8167 72.5694V69.2239C14.8167 62.032 19.6196 55.9426 26.1862 53.9896Z" fill="#EEF2F7"/>
<path d="M30.0749 32.5269C31.33 32.0184 33.2451 31.394 35.0736 31.394C37.2019 31.394 39.2836 31.9415 41.1403 32.9835C41.5536 32.5777 41.9323 32.1363 42.2764 31.6635C40.5128 29.3469 39.5498 26.5078 39.5498 23.5875C39.5498 21.6205 39.9891 19.6686 40.8266 17.8952C38.9201 16.1727 36.4878 15.2324 33.9029 15.2324C29.1985 15.2324 25.1031 18.4167 23.9043 22.9015C27.4186 24.9465 29.7081 28.5214 30.0749 32.5269Z" fill="#EEF2F7"/>
<path d="M63.9638 31.072C64.3274 31.6498 64.7526 32.1941 65.2351 32.7004C66.9533 31.8435 68.8425 31.3934 70.7446 31.3934C72.6154 31.3934 74.4082 31.8716 75.5833 32.272C75.9511 27.9299 78.5771 24.0976 82.508 22.1554C81.0667 18.0384 77.1651 15.2285 72.7474 15.2285C69.8909 15.2285 67.186 16.4014 65.233 18.4658C65.919 20.1018 66.2663 21.8211 66.2663 23.5836C66.2652 26.2832 65.471 28.8561 63.9638 31.072Z" fill="#EEF2F7"/>
</svg>
