<svg width="106" height="106" viewBox="0 0 106 106" fill="none" xmlns="http://www.w3.org/2000/svg">
<path d="M90.4768 15.5234C80.4664 5.51304 67.1568 0 53 0C38.8432 0 25.5336 5.51304 15.5232 15.5234C5.51283 25.5338 0 38.8432 0 53C0 67.1568 5.51283 80.4664 15.5232 90.4766C25.5336 100.487 38.8432 106 53 106C67.1568 106 80.4664 100.487 90.4768 90.4766C100.487 80.4662 106 67.1568 106 53C106 38.8432 100.487 25.5336 90.4768 15.5234ZM53 95.5971C29.5117 95.5971 10.4029 76.4881 10.4029 53C10.4029 52.9615 10.4041 52.9234 10.4044 52.8853C10.4044 52.8756 10.4029 52.8663 10.4029 52.8565C10.4029 52.8402 10.405 52.8244 10.4054 52.8083C10.5087 29.6015 29.263 10.7209 52.4211 10.4104C52.4696 10.4081 52.5176 10.4031 52.5667 10.4031C52.5961 10.4031 52.6247 10.4066 52.6538 10.4075C52.7694 10.4066 52.8845 10.4031 53.0002 10.4031C76.4885 10.4031 95.5973 29.5121 95.5973 53.0002C95.5973 76.4883 76.4883 95.5971 53 95.5971Z" fill="#EEF2F7"/>
<path d="M85.3562 55.5588C83.6242 55.5588 82.2201 54.1547 82.2201 52.4227C82.2201 50.6906 83.6242 49.2865 85.3562 49.2865H89.1364C87.3609 31.8802 73.2442 18.0718 55.7025 16.7754V20.0662C55.7025 21.7982 54.2984 23.2023 52.5664 23.2023C50.8344 23.2023 49.4303 21.7982 49.4303 20.0662V16.8503C32.1481 18.5439 18.382 32.3988 16.8245 49.7199H20.2099C21.9419 49.7199 23.346 51.124 23.346 52.856C23.346 54.588 21.9419 55.9921 20.2099 55.9921H16.7988C18.2408 73.592 32.2829 87.6772 49.8638 89.1879V85.2123C49.8638 83.4803 51.2679 82.0762 52.9999 82.0762C54.7319 82.0762 56.136 83.4803 56.136 85.2123V89.1879C73.8608 87.6648 87.9884 73.3601 89.2335 55.5588H85.3562ZM65.6951 44.7397L55.2176 55.2174C54.6294 55.8055 53.832 56.136 53.0001 56.136C52.1685 56.136 51.3706 55.8055 50.7826 55.2174L32.5446 36.9794C31.3198 35.7548 31.3198 33.7691 32.5446 32.5443C33.7692 31.3195 35.7548 31.3195 36.9796 32.5443L53.0003 48.5648L61.2604 40.3047C62.485 39.0799 64.4707 39.0799 65.6955 40.3047C66.9199 41.5293 66.9199 43.5151 65.6951 44.7397Z" fill="#7876F2"/>
</svg>
