<svg width="106" height="106" viewBox="0 0 106 106" fill="none" xmlns="http://www.w3.org/2000/svg">
<path d="M52.9997 50.6965C61.9084 50.6965 69.1302 43.4747 69.1302 34.566C69.1302 25.6574 61.9084 18.4355 52.9997 18.4355C44.0911 18.4355 36.8693 25.6574 36.8693 34.566C36.8693 43.4747 44.0911 50.6965 52.9997 50.6965Z" fill="#7876F2"/>
<path d="M85.2612 59.9125C91.6244 59.9125 96.7828 54.7541 96.7828 48.3908C96.7828 42.0276 91.6244 36.8691 85.2612 36.8691C78.8979 36.8691 73.7395 42.0276 73.7395 48.3908C73.7395 54.7541 78.8979 59.9125 85.2612 59.9125Z" fill="#EEF2F7"/>
<path d="M21.0662 59.9125C27.4295 59.9125 32.5879 54.7541 32.5879 48.3908C32.5879 42.0276 27.4295 36.8691 21.0662 36.8691C14.703 36.8691 9.54456 42.0276 9.54456 48.3908C9.54456 54.7541 14.703 59.9125 21.0662 59.9125Z" fill="#EEF2F7"/>
<path d="M52.9996 55.3047C36.482 55.3047 23.043 68.7436 23.043 85.2612C23.043 86.5332 24.0754 87.5656 25.3474 87.5656H80.6518C81.9238 87.5656 82.9562 86.5332 82.9562 85.2612C82.9562 68.7436 69.5172 55.3047 52.9996 55.3047Z" fill="#7876F2"/>
<path d="M25.039 65.0192C23.6288 64.7196 22.1954 64.5215 20.7391 64.5215C9.30495 64.5215 0 73.8264 0 85.2606C0 86.5326 1.03242 87.565 2.30442 87.565H18.8588C18.6006 86.8415 18.4347 86.0718 18.4347 85.2606C18.4347 77.6977 20.905 70.7156 25.039 65.0192Z" fill="#EEF2F7"/>
<path d="M85.2607 64.5215C83.8044 64.5215 82.3711 64.7196 80.9608 65.0192C85.0948 70.7156 87.5651 77.6977 87.5651 85.2606C87.5651 86.0718 87.3992 86.8413 87.1411 87.565H103.695C104.967 87.565 106 86.5326 106 85.2606C106 73.8264 96.6949 64.5215 85.2607 64.5215Z" fill="#EEF2F7"/>
</svg>
