<svg width="106" height="106" viewBox="0 0 106 106" fill="none" xmlns="http://www.w3.org/2000/svg">
<path d="M56.2713 36.5531C55.2126 36.3429 54.1193 36.2305 53 36.2305C43.7531 36.2305 36.2305 43.7531 36.2305 53C36.2305 62.2469 43.7531 69.7695 53 69.7695C62.2469 69.7695 69.7695 62.2469 69.7695 53C69.7695 51.8807 69.6571 50.7874 69.4469 49.7287L59.5878 59.5878C57.828 61.3476 55.4884 62.3164 53 62.3164C50.5116 62.3164 48.172 61.3476 46.4122 59.5878C44.6524 57.828 43.6836 55.4884 43.6836 53C43.6836 50.5116 44.6524 48.172 46.4122 46.4122L56.2713 36.5531Z" fill="#7876F2"/>
<path d="M101.257 31.0935L94.5753 37.7751C93.9065 38.4439 93.1527 38.9987 92.3392 39.4289C93.811 43.6852 94.6133 48.2504 94.6133 53C94.6133 75.9457 75.9457 94.6133 53 94.6133C30.0543 94.6133 11.3867 75.9457 11.3867 53C11.3867 30.0543 30.0543 11.3867 53 11.3867C57.7512 11.3867 62.3188 12.1898 66.5759 13.6624C67.007 12.8481 67.5577 12.0911 68.2257 11.4239L74.9065 4.74312C68.2257 1.6983 60.8082 0 53 0C23.7754 0 0 23.7754 0 53C0 82.2246 23.7754 106 53 106C82.2246 106 106 82.2246 106 53C106 45.1918 104.302 37.7743 101.257 31.0935Z" fill="#EEF2F7"/>
<path d="M66.1902 26.6342L65.6241 19.9251C61.701 18.4217 57.4455 17.5977 53 17.5977C33.4792 17.5977 17.5977 33.4792 17.5977 53C17.5977 72.5208 33.4792 88.4023 53 88.4023C72.5208 88.4023 88.4023 72.5208 88.4023 53C88.4023 48.5545 87.5783 44.299 86.0749 40.3759L79.3658 39.8098L74.4415 44.7333C75.4346 47.3002 75.9805 50.087 75.9805 53C75.9805 65.6718 65.6718 75.9805 53 75.9805C40.3282 75.9805 30.0195 65.6718 30.0195 53C30.0195 40.3282 40.3282 30.0195 53 30.0195C55.913 30.0195 58.6998 30.5654 61.2667 31.5585L66.1902 26.6342Z" fill="#7876F2"/>
<path d="M71.7177 18.2727L72.6219 28.9865L50.8043 50.8041C49.5913 52.0163 49.5913 53.9831 50.8043 55.1954C51.4101 55.8019 52.205 56.1052 53 56.1052C53.795 56.1052 54.5899 55.8019 55.1957 55.1954L77.0132 33.3779L87.7271 34.2812C87.8144 34.2885 87.9009 34.2925 87.9883 34.2925C88.8083 34.2925 89.5992 33.9674 90.1839 33.3827L103.359 20.2071C104.214 19.3531 104.495 18.0802 104.08 16.9448C103.664 15.8093 102.628 15.0184 101.424 14.9173L91.8863 14.1126L91.0824 4.57545C90.9805 3.37046 90.1896 2.3345 89.055 1.91963C87.9195 1.50395 86.6466 1.78619 85.7918 2.64019L72.617 15.8158C71.97 16.4628 71.6409 17.3612 71.7177 18.2727Z" fill="#7876F2"/>
</svg>
