<svg width="106" height="106" viewBox="0 0 106 106" fill="none" xmlns="http://www.w3.org/2000/svg">
<g clip-path="url(#clip0)">
<path d="M56.2211 65.0527C55.4011 65.0527 54.0595 65.0527 53.2395 65.0527H50.2759C49.456 65.0527 48.1143 65.0527 47.2943 65.0527H35.3503C34.5303 65.0527 33.8595 65.7236 33.8595 66.5435V84.4328C33.8595 85.2527 34.5303 85.9235 35.3503 85.9235H68.1472C68.9672 85.9235 69.638 85.2527 69.638 84.4328V66.5435C69.638 65.7236 68.9672 65.0527 68.1472 65.0527H56.2211Z" fill="#7876F2"/>
<path d="M32.3807 39.7133C26.6278 39.7133 21.9453 35.0308 21.9453 29.2779C21.9453 28.4535 22.6117 27.7871 23.4361 27.7871C24.2605 27.7871 24.9269 28.4535 24.9269 29.2779C24.9269 33.3879 28.2707 36.7317 32.3807 36.7317C33.2051 36.7317 33.8715 37.3981 33.8715 38.2225C33.8715 39.0469 33.2051 39.7133 32.3807 39.7133Z" fill="#7876F2"/>
<path d="M23.4361 30.7681C22.6117 30.7681 21.9453 30.1018 21.9453 29.2774V17.3482C21.9453 16.5238 22.6117 15.8574 23.4361 15.8574C24.2605 15.8574 24.9269 16.5238 24.9269 17.3482V29.2774C24.9269 30.1018 24.2605 30.7681 23.4361 30.7681Z" fill="#7876F2"/>
<path d="M32.3688 18.839H23.4361C22.6117 18.839 21.9453 18.1726 21.9453 17.3482C21.9453 16.5238 22.6117 15.8574 23.4361 15.8574H32.3688C33.1932 15.8574 33.8596 16.5238 33.8596 17.3482C33.8596 18.1726 33.1932 18.839 32.3688 18.839Z" fill="#7876F2"/>
<path d="M33.3064 39.712H32.3807C31.5563 39.712 30.8899 39.0456 30.8899 38.2212C30.8899 37.3968 31.5563 36.7305 32.3807 36.7305H33.3064C34.1308 36.7305 34.7972 37.3968 34.7972 38.2212C34.7972 39.0456 34.1308 39.712 33.3064 39.712Z" fill="#7876F2"/>
<path d="M71.1348 39.7133C70.3104 39.7133 69.644 39.0469 69.644 38.2225C69.644 37.3981 70.3104 36.7317 71.1348 36.7317C75.2448 36.7317 78.5886 33.3879 78.5886 29.2779C78.5886 28.4535 79.255 27.7871 80.0794 27.7871C80.9038 27.7871 81.5702 28.4535 81.5702 29.2779C81.5702 35.0308 76.8876 39.7133 71.1348 39.7133Z" fill="#7876F2"/>
<path d="M80.0795 30.7681C79.2551 30.7681 78.5887 30.1018 78.5887 29.2774V17.3482C78.5887 16.5238 79.2551 15.8574 80.0795 15.8574C80.9039 15.8574 81.5702 16.5238 81.5702 17.3482V29.2774C81.5702 30.1018 80.9039 30.7681 80.0795 30.7681Z" fill="#7876F2"/>
<path d="M80.0796 18.839H71.1469C70.3225 18.839 69.6561 18.1726 69.6561 17.3482C69.6561 16.5238 70.3225 15.8574 71.1469 15.8574H80.0796C80.904 15.8574 81.5704 16.5238 81.5704 17.3482C81.5704 18.1726 80.904 18.839 80.0796 18.839Z" fill="#7876F2"/>
<path d="M71.135 39.712H70.2092C69.3848 39.712 68.7184 39.0456 68.7184 38.2212C68.7184 37.3968 69.3848 36.7305 70.2092 36.7305H71.135C71.9594 36.7305 72.6258 37.3968 72.6258 38.2212C72.6258 39.0456 71.9594 39.712 71.135 39.712Z" fill="#7876F2"/>
<path d="M68.1652 11.3867V15.8739H35.3682V11.3867H46.5311H56.9844H68.1652Z" fill="#7876F2"/>
<path d="M54.7306 51.4121V65.0527H48.7854V51.4121C49.7514 51.5627 50.7368 51.6357 51.7491 51.6357C52.7658 51.6357 53.7646 51.5612 54.7306 51.4121Z" fill="#7876F2"/>
<path d="M51.7489 21.8359C56.6848 21.8359 60.6935 25.8461 60.6935 30.7806C60.6935 35.7165 56.6848 39.7252 51.7489 39.7252C46.8159 39.7252 42.8043 35.7165 42.8043 30.7806C42.8043 25.8461 46.8174 21.8359 51.7489 21.8359Z" fill="#7876F2"/>
<path d="M71.1469 17.3475V32.2552C71.1469 34.3274 70.8174 36.3399 70.2062 38.2183C67.9999 45.0908 62.0368 50.2787 54.7305 51.4116C53.7645 51.5622 52.7656 51.6353 51.7489 51.6353C50.7352 51.6353 49.7513 51.5607 48.7853 51.4116C41.4805 50.2936 35.5308 45.0923 33.3096 38.2183C32.6984 36.3399 32.3689 34.3274 32.3689 32.2552V17.3475V14.3809H35.3683H68.1653H71.1469V17.3475ZM60.6936 30.7794C60.6936 25.8449 56.6849 21.8347 51.7489 21.8347C46.816 21.8347 42.8043 25.8449 42.8043 30.7794C42.8043 35.7153 46.816 39.724 51.7489 39.724C56.6849 39.724 60.6936 35.7138 60.6936 30.7794Z" fill="#7876F2"/>
<path d="M62.2021 72.5064V78.4695C61.3657 78.4695 60.7113 79.1404 60.7113 79.9603H42.822C42.822 79.1404 42.1497 78.4695 41.3312 78.4695V72.5064C42.1497 72.5064 42.822 71.8356 42.822 71.0156H60.7113C60.7113 71.8356 61.3657 72.5064 62.2021 72.5064Z" fill="#EEF2F7"/>
<path d="M69.6548 15.8683H33.8613C33.0369 15.8683 32.3705 15.2019 32.3705 14.3775C32.3705 13.5531 33.0369 12.8867 33.8613 12.8867H69.6548C70.4792 12.8867 71.1455 13.5531 71.1455 14.3775C71.1455 15.2019 70.4792 15.8683 69.6548 15.8683Z" fill="#7876F2"/>
<path d="M51.6648 35.6102C51.3948 35.6102 51.1749 35.5275 51.0052 35.3622C50.8432 35.1968 50.7622 34.9764 50.7622 34.7008V28.7246H48.8874C48.3165 28.7246 48.0311 28.4726 48.0311 27.9687C48.0311 27.4726 48.3165 27.2246 48.8874 27.2246H54.4422C55.0131 27.2246 55.2986 27.4726 55.2986 27.9687C55.2986 28.4726 55.0131 28.7246 54.4422 28.7246H52.5675V34.7008C52.5675 34.9764 52.4865 35.1968 52.3245 35.3622C52.1624 35.5275 51.9426 35.6102 51.6648 35.6102Z" fill="#7876F2"/>
<path d="M26.4518 85.0585C22.8126 81.8801 19.8011 78.1196 17.4962 73.88C16.6774 72.3728 17.2354 70.4864 18.7428 69.6675C20.247 68.8518 22.1364 69.4038 22.9552 70.9141C24.9053 74.5048 27.4557 77.6892 30.54 80.382C31.8319 81.5102 31.9623 83.4724 30.8342 84.7643C29.7107 86.0489 27.7523 86.1924 26.4518 85.0585Z" fill="#EEF2F7"/>
<path d="M13.0079 60.1863C12.7561 58.3729 12.6288 56.5229 12.6288 54.6426V42.2207C12.6288 40.5042 14.0178 39.1152 15.7343 39.1152C17.4507 39.1152 18.8397 40.5042 18.8397 42.2207V54.6426C18.8397 56.2378 18.9488 57.8027 19.1581 59.3372C19.3948 61.0386 18.2058 62.6034 16.5075 62.8369C14.8624 63.0769 13.2451 61.9251 13.0079 60.1863Z" fill="#EEF2F7"/>
<path d="M89.5771 62.4791C87.8728 62.2638 86.6687 60.7111 86.884 59.0097C87.066 57.5783 87.16 56.1195 87.16 54.6426V42.2207C87.16 40.5042 88.5489 39.1152 90.2654 39.1152C91.9819 39.1152 93.3709 40.5042 93.3709 42.2207V54.6426C93.3709 56.3864 93.2587 58.0998 93.0465 59.7861C92.8368 61.4313 91.3563 62.6859 89.5771 62.4791Z" fill="#EEF2F7"/>
<path d="M75.1747 84.7578C74.0466 83.4659 74.177 81.5036 75.4689 80.3755C78.4014 77.8129 80.8579 74.7985 82.7686 71.4109C83.6147 69.9157 85.5072 69.4002 87.0021 70.2341C88.4942 71.0803 89.0219 72.9727 88.1789 74.4677C85.9196 78.4648 83.0172 82.0252 79.5569 85.0517C78.2745 86.1757 76.3036 86.0544 75.1747 84.7578Z" fill="#EEF2F7"/>
<path d="M59.3047 88.2209C57.2361 88.6095 55.1169 88.8016 52.9998 88.8012C50.8864 88.8008 48.7749 88.6086 46.7191 88.2269C45.0268 87.9084 43.4105 89.0246 43.0981 90.7137C42.7857 92.4 43.8987 94.0194 45.585 94.3347C48.0141 94.7867 50.5069 95.014 52.9998 95.014C55.4958 95.014 58.0007 94.7836 60.4451 94.3285C62.1313 94.0132 63.2412 92.3907 62.9288 90.7044C62.6135 89.0214 61.003 87.9145 59.3047 88.2209Z" fill="#EEF2F7"/>
<path d="M62.9289 90.7046C62.6136 89.0214 61.0031 87.9145 59.3048 88.2209C57.2362 88.6095 55.117 88.8016 52.9999 88.8012V95.014C55.4958 95.014 58.0007 94.7836 60.4451 94.3285C62.1312 94.0132 63.2413 92.3907 62.9289 90.7046Z" fill="#EEF2F7"/>
<path d="M31.9561 97.5675C24.0104 95.7357 19.416 87.5445 19.2249 87.1956C18.4607 85.8098 18.864 84.0719 20.1559 83.1591C20.4803 82.9256 28.1742 77.579 36.1443 79.4108C44.09 81.2456 48.6815 89.437 48.8724 89.7856C49.6365 91.1715 49.2332 92.9124 47.9414 93.8221C43.9637 96.6325 37.4933 98.843 31.9561 97.5675Z" fill="#EEF2F7"/>
<path d="M14.9016 45.2148C14.5194 45.1057 5.2622 42.5217 1.65033 35.2129C-1.96153 27.8981 1.47146 19.1579 1.62011 18.791C2.21139 17.3171 3.79145 16.5317 5.33507 16.9532C5.71725 17.0623 14.9744 19.6462 18.5863 26.9611C22.1982 34.2699 18.7652 43.0101 18.6165 43.377C18.0377 44.8223 16.4634 45.6392 14.9016 45.2148Z" fill="#EEF2F7"/>
<path d="M19.9436 76.1278C18.0997 76.1278 10.1102 75.8154 5.01827 70.5143C-0.631616 64.6309 0.00521224 55.263 0.0356458 54.8688C0.153861 53.2887 1.44284 52.0544 3.0229 52C3.43531 51.9908 12.6712 51.7331 18.3151 57.6074C23.9649 63.4908 23.3281 72.8588 23.2977 73.253C23.184 74.7715 22.0085 76.1278 19.9436 76.1278Z" fill="#EEF2F7"/>
<path d="M58.0553 93.793C56.7634 92.8802 56.363 91.1423 57.1303 89.7565C57.3214 89.4076 61.922 81.2195 69.8706 79.3968C77.8465 77.5863 85.5284 82.936 85.8528 83.1633C87.1446 84.0761 87.545 85.814 86.7778 87.1998C86.5867 87.5487 81.986 95.7339 74.0375 97.5564C68.5526 98.8267 62.0492 96.6146 58.0553 93.793Z" fill="#EEF2F7"/>
<path d="M85.7345 76.1268C83.6551 76.1268 82.4931 74.7537 82.3804 73.2517C82.3502 72.8544 81.7163 63.4865 87.363 57.6062C93.0098 51.7319 102.585 51.9865 102.986 51.9987C104.566 52.0534 105.854 53.2877 105.973 54.8676C106.003 55.2617 106.542 64.6297 100.895 70.5131C95.8006 75.8144 87.5784 76.1268 85.7345 76.1268Z" fill="#EEF2F7"/>
<path d="M87.3754 44.1361C87.2299 43.7662 83.8544 35.0017 87.5178 27.7171C91.1753 20.4296 100.356 17.9063 100.738 17.8032C102.276 17.3695 103.862 18.1914 104.441 19.6621C104.587 20.0321 107.962 28.7935 104.302 36.0812C100.638 43.3687 91.4603 45.892 91.0782 45.9951C89.6194 46.405 87.9721 45.6564 87.3754 44.1361Z" fill="#EEF2F7"/>
</g>
<defs>
<clipPath id="clip0">
<rect width="106" height="106" fill="white"/>
</clipPath>
</defs>
</svg>
