<svg width="70" height="70" viewBox="0 0 70 70" fill="none" xmlns="http://www.w3.org/2000/svg">
<path d="M55.4167 14.5833H49.5833V8.75H20.4167V14.5833H14.5833C11.375 14.5833 8.75 17.2083 8.75 20.4167V23.3333C8.75 30.7708 14.35 36.8375 21.5542 37.7417C23.3917 42.1167 27.3292 45.4125 32.0833 46.375V55.4167H20.4167V61.25H49.5833V55.4167H37.9167V46.375C42.6708 45.4125 46.6083 42.1167 48.4458 37.7417C55.65 36.8375 61.25 30.7708 61.25 23.3333V20.4167C61.25 17.2083 58.625 14.5833 55.4167 14.5833ZM14.5833 23.3333V20.4167H20.4167V31.5583C17.0333 30.3333 14.5833 27.125 14.5833 23.3333ZM55.4167 23.3333C55.4167 27.125 52.9667 30.3333 49.5833 31.5583V20.4167H55.4167V23.3333Z" fill="rgb(108, 117, 125)"/>
<circle cx="55" cy="52" r="15" fill="#FAFBFE"/>
<path d="M48.2497 50.4223L53.5593 56.1178L62.2346 47.5" stroke="#7876F2" stroke-width="4" stroke-linecap="round" stroke-linejoin="round"/>
</svg>
