<svg width="70" height="70" viewBox="0 0 70 70" fill="none" xmlns="http://www.w3.org/2000/svg">
<path d="M64.6499 14.1371C64.3501 14.022 64.0618 13.9642 63.7848 13.9642C63.1619 13.9642 62.6435 14.1837 62.228 14.6217L48.2849 28.5303V22.8217C48.2849 20.0766 47.3104 17.7301 45.3613 15.7809C43.4121 13.832 41.0658 12.8574 38.3205 12.8574H13.964C11.2195 12.8574 8.87244 13.832 6.92312 15.7809C4.97454 17.7301 4 20.0766 4 22.8217V47.1785C4 49.9234 4.97454 52.2698 6.92324 54.2189C8.87256 56.1679 11.2196 57.1425 13.9641 57.1425H38.3207C41.0659 57.1425 43.4123 56.1679 45.3615 54.2189C47.3106 52.2698 48.2851 49.9235 48.2851 47.1785V41.4349L62.2282 55.3781C62.6437 55.8159 63.1621 56.0354 63.785 56.0354C64.062 56.0354 64.3503 55.9777 64.6501 55.8628C65.5501 55.4705 65.9996 54.7904 65.9996 53.8216V16.1789C65.9992 15.2097 65.5498 14.5294 64.6499 14.1371Z" fill="rgb(108, 117, 125)"/>
<circle cx="55" cy="52" r="15" fill="#FAFBFE"/>
<path d="M48.25 50.4223L53.5596 56.1178L62.2349 47.5" stroke="#7876F2" stroke-width="4" stroke-linecap="round" stroke-linejoin="round"/>
</svg>
