<svg width="76" height="107" viewBox="0 0 76 107" fill="none" xmlns="http://www.w3.org/2000/svg">
<circle cx="40" cy="34" r="10.5" fill="#FFD964" stroke="#D6B062"/>
<path d="M66.5 88V91.1667C66.5 94.65 63.65 97.5 60.1667 97.5H15.8333C12.3183 97.5 9.5 94.65 9.5 91.1667V46.8333C9.5 43.35 12.3183 40.5 15.8333 40.5H60.1667C63.65 40.5 66.5 43.35 66.5 46.8333V50H38C34.485 50 31.6667 52.85 31.6667 56.3333V81.6667C31.6667 85.15 34.485 88 38 88H66.5ZM38 81.6667H69.6667V56.3333H38V81.6667ZM50.6667 73.75C48.0383 73.75 45.9167 71.6283 45.9167 69C45.9167 66.3717 48.0383 64.25 50.6667 64.25C53.295 64.25 55.4167 66.3717 55.4167 69C55.4167 71.6283 53.295 73.75 50.6667 73.75Z" fill="#7876F2"/>
<circle cx="54" cy="8" r="7.5" fill="#FFD964" stroke="#D6B062"/>
<circle cx="13.5" cy="14.5" r="8" fill="#FFD964" stroke="#D6B062"/>
<path d="M14.0509 19.1724C13.8871 19.1724 13.7515 19.1156 13.6444 19.0022C13.5372 18.895 13.4837 18.7627 13.4837 18.6051V18.0473C13.1181 18.0221 12.7935 17.9653 12.5098 17.8771C12.2325 17.7825 11.9961 17.6848 11.8008 17.584C11.6243 17.4958 11.514 17.3728 11.4698 17.2153C11.4257 17.0514 11.432 16.897 11.4888 16.752C11.5518 16.6007 11.6526 16.4936 11.7913 16.4305C11.9363 16.3612 12.1065 16.3738 12.3018 16.4684C12.4531 16.5503 12.6643 16.6354 12.9353 16.7236C13.2063 16.8056 13.5372 16.8465 13.928 16.8465C14.3629 16.8465 14.6718 16.7772 14.8546 16.6385C15.0374 16.4999 15.1288 16.3265 15.1288 16.1185C15.1288 15.9484 15.0657 15.8065 14.9397 15.6931C14.8136 15.5796 14.5867 15.4882 14.2589 15.4189L13.2189 15.192C12.0718 14.9399 11.4982 14.3285 11.4982 13.3578C11.4982 12.8284 11.6778 12.3808 12.0371 12.0153C12.3964 11.6497 12.8786 11.4196 13.4837 11.3251V10.7295C13.4837 10.5719 13.5372 10.4395 13.6444 10.3324C13.7515 10.2189 13.8871 10.1622 14.0509 10.1622C14.2085 10.1622 14.3409 10.2189 14.448 10.3324C14.5552 10.4395 14.6088 10.5719 14.6088 10.7295V11.2967C14.842 11.3282 15.0815 11.385 15.3273 11.4669C15.5794 11.5488 15.8 11.656 15.9891 11.7884C16.1404 11.8829 16.2318 12.0058 16.2633 12.1571C16.3011 12.3021 16.2885 12.4407 16.2255 12.5731C16.1625 12.7055 16.0585 12.8 15.9135 12.8567C15.7748 12.9072 15.6046 12.8819 15.4029 12.7811C15.2328 12.6992 15.0468 12.6298 14.8451 12.5731C14.6434 12.5164 14.3945 12.488 14.0982 12.488C13.7326 12.488 13.4458 12.5636 13.2378 12.7149C13.0298 12.8662 12.9258 13.0616 12.9258 13.3011C12.9258 13.4713 12.9857 13.6131 13.1055 13.7265C13.2315 13.8337 13.449 13.9219 13.7578 13.9913L14.8073 14.2182C15.4061 14.3505 15.8473 14.568 16.1309 14.8705C16.4209 15.1668 16.5658 15.5481 16.5658 16.0145C16.5658 16.5503 16.3831 16.9915 16.0175 17.3382C15.6582 17.6848 15.1886 17.9086 14.6088 18.0095V18.6051C14.6088 18.7627 14.5552 18.895 14.448 19.0022C14.3409 19.1156 14.2085 19.1724 14.0509 19.1724Z" fill="#D6B062"/>
<path d="M54.0509 12.1724C53.8871 12.1724 53.7515 12.1156 53.6444 12.0022C53.5372 11.895 53.4837 11.7627 53.4837 11.6051V11.0473C53.1181 11.0221 52.7935 10.9653 52.5098 10.8771C52.2325 10.7825 51.9961 10.6848 51.8008 10.584C51.6243 10.4958 51.514 10.3728 51.4698 10.2153C51.4257 10.0514 51.432 9.89697 51.4888 9.752C51.5518 9.60073 51.6526 9.49358 51.7913 9.43055C51.9363 9.36121 52.1065 9.37382 52.3018 9.46836C52.4531 9.5503 52.6643 9.63539 52.9353 9.72364C53.2063 9.80558 53.5372 9.84655 53.928 9.84655C54.3629 9.84655 54.6718 9.77721 54.8546 9.63855C55.0374 9.49988 55.1288 9.32655 55.1288 9.11855C55.1288 8.94836 55.0657 8.80655 54.9397 8.69309C54.8136 8.57964 54.5867 8.48824 54.2589 8.41891L53.2189 8.192C52.0718 7.93988 51.4982 7.32848 51.4982 6.35782C51.4982 5.82836 51.6778 5.38085 52.0371 5.01527C52.3964 4.6497 52.8786 4.41964 53.4837 4.32509V3.72945C53.4837 3.57188 53.5372 3.43951 53.6444 3.33236C53.7515 3.21891 53.8871 3.16218 54.0509 3.16218C54.2085 3.16218 54.3409 3.21891 54.448 3.33236C54.5552 3.43951 54.6088 3.57188 54.6088 3.72945V4.29673C54.842 4.32824 55.0815 4.38497 55.3273 4.46691C55.5794 4.54885 55.8 4.656 55.9891 4.78836C56.1404 4.88291 56.2318 5.00582 56.2633 5.15709C56.3011 5.30206 56.2885 5.44073 56.2255 5.57309C56.1625 5.70545 56.0585 5.8 55.9135 5.85673C55.7748 5.90715 55.6046 5.88194 55.4029 5.78109C55.2328 5.69915 55.0468 5.62982 54.8451 5.57309C54.6434 5.51636 54.3945 5.488 54.0982 5.488C53.7326 5.488 53.4458 5.56364 53.2378 5.71491C53.0298 5.86618 52.9258 6.06158 52.9258 6.30109C52.9258 6.47127 52.9857 6.61309 53.1055 6.72655C53.2315 6.8337 53.449 6.92194 53.7578 6.99127L54.8073 7.21818C55.4061 7.35055 55.8473 7.568 56.1309 7.87054C56.4209 8.16679 56.5658 8.54812 56.5658 9.01455C56.5658 9.5503 56.3831 9.99152 56.0175 10.3382C55.6582 10.6848 55.1886 10.9086 54.6088 11.0095V11.6051C54.6088 11.7627 54.5552 11.895 54.448 12.0022C54.3409 12.1156 54.2085 12.1724 54.0509 12.1724Z" fill="#D6B062"/>
<path d="M40.1774 40.6052C39.953 40.6052 39.7675 40.5276 39.6208 40.3722C39.4741 40.2255 39.4007 40.0443 39.4007 39.8285V39.0647C38.9002 39.0302 38.4557 38.9525 38.0673 38.8317C37.6876 38.7023 37.364 38.5685 37.0964 38.4304C36.8548 38.3096 36.7037 38.1413 36.6433 37.9255C36.5829 37.7011 36.5915 37.4897 36.6692 37.2912C36.7555 37.0841 36.8936 36.9374 37.0835 36.8511C37.282 36.7561 37.515 36.7734 37.7825 36.9028C37.9897 37.015 38.2788 37.1315 38.6499 37.2524C39.021 37.3646 39.4741 37.4207 40.0091 37.4207C40.6046 37.4207 41.0275 37.3257 41.2778 37.1359C41.5281 36.946 41.6532 36.7087 41.6532 36.4239C41.6532 36.1908 41.5669 35.9967 41.3943 35.8413C41.2217 35.686 40.911 35.5608 40.4622 35.4659L39.0382 35.1552C37.4675 34.81 36.6822 33.9728 36.6822 32.6438C36.6822 31.9188 36.9281 31.3061 37.4201 30.8055C37.912 30.305 38.5722 29.99 39.4007 29.8605V29.0449C39.4007 28.8292 39.4741 28.648 39.6208 28.5012C39.7675 28.3459 39.953 28.2682 40.1774 28.2682C40.3932 28.2682 40.5744 28.3459 40.7211 28.5012C40.8679 28.648 40.9412 28.8292 40.9412 29.0449V29.8217C41.2605 29.8648 41.5885 29.9425 41.9251 30.0547C42.2703 30.1669 42.5723 30.3136 42.8313 30.4948C43.0384 30.6243 43.1635 30.7926 43.2067 30.9997C43.2585 31.1982 43.2412 31.3881 43.1549 31.5693C43.0686 31.7505 42.9262 31.88 42.7277 31.9577C42.5378 32.0267 42.3048 31.9922 42.0286 31.8541C41.7956 31.7419 41.541 31.647 41.2649 31.5693C40.9887 31.4916 40.6478 31.4528 40.2422 31.4528C39.7416 31.4528 39.3489 31.5564 39.0641 31.7635C38.7793 31.9706 38.6369 32.2382 38.6369 32.5661C38.6369 32.7991 38.7189 32.9933 38.8829 33.1487C39.0555 33.2954 39.3532 33.4162 39.7761 33.5111L41.2131 33.8218C42.033 34.0031 42.6371 34.3008 43.0254 34.7151C43.4224 35.1207 43.6209 35.6428 43.6209 36.2815C43.6209 37.015 43.3706 37.6192 42.8701 38.0938C42.3782 38.5685 41.7352 38.8749 40.9412 39.0129V39.8285C40.9412 40.0443 40.8679 40.2255 40.7211 40.3722C40.5744 40.5276 40.3932 40.6052 40.1774 40.6052Z" fill="#D6B062"/>
</svg>
