<svg width="100" height="100" viewBox="0 0 100 100" fill="none" xmlns="http://www.w3.org/2000/svg">
<path d="M83.3327 73.1482V26.8519C83.3327 16.8148 68.0702 8.33334 49.9993 8.33334C31.9285 8.33334 16.666 16.8148 16.666 26.8519V73.1482C16.666 83.1852 31.9285 91.6667 49.9993 91.6667C68.0702 91.6667 83.3327 83.1852 83.3327 73.1482ZM49.9993 17.5926C65.3785 17.5926 74.7118 24.5694 74.9993 26.8241C74.7118 29.1343 65.3785 36.1111 49.9993 36.1111C34.6202 36.1111 25.2868 29.1343 24.9993 26.8796C25.2868 24.5694 34.6202 17.5926 49.9993 17.5926ZM24.9993 38.9213C31.1618 42.8426 40.1535 45.3704 49.9993 45.3704C59.8452 45.3704 68.8368 42.8426 74.9993 38.9213V49.9722C74.7118 52.2824 65.3785 59.2593 49.9993 59.2593C34.6202 59.2593 25.2868 52.2824 24.9993 50V38.9213ZM24.9993 73.1482V62.0695C31.1618 65.9907 40.1535 68.5185 49.9993 68.5185C59.8452 68.5185 68.8368 65.9907 74.9993 62.0695V73.1204C74.7118 75.4306 65.3785 82.4074 49.9993 82.4074C34.6202 82.4074 25.2868 75.4306 24.9993 73.1482Z" fill="#EEF2F7"/>
</svg>
