<svg width="70" height="72" viewBox="0 0 70 72" fill="none" xmlns="http://www.w3.org/2000/svg">
<path d="M28.3373 26.3452L22.2732 36.2219C22.1541 36.4622 21.9121 36.6021 21.6606 36.6021C21.5586 36.6021 21.455 36.5792 21.3578 36.5306C21.0053 36.3559 20.6315 36.2731 20.263 36.2731C19.3535 36.2731 18.4793 36.7773 18.0478 37.6473L17.683 38.3832C17.0774 39.6056 17.5778 41.0876 18.7997 41.6932L41.3024 52.8431C41.6549 53.0178 42.0288 53.1005 42.3972 53.1005C43.3067 53.1005 44.181 52.5964 44.6125 51.7264L44.9772 50.9905C45.5829 49.7681 45.0825 48.2861 43.8605 47.6805C43.5225 47.5128 43.3842 47.1031 43.5513 46.7651L47.7367 35.9575C49.7671 30.7148 47.4638 24.7889 42.4266 22.2928C40.8805 21.527 39.233 21.1611 37.6074 21.1611C33.9363 21.1611 30.3763 23.0244 28.3373 26.3452Z" fill="rgb(108, 117, 125)"/>
<path d="M32.454 55.8911C34.053 56.6057 35.5457 55.9184 36.3345 54.9592L30.8444 52.2393C30.4342 53.6588 31.0831 55.2118 32.454 55.8911Z" fill="rgb(108, 117, 125)"/>
<path d="M46.7245 20.1643C46.7464 20.1247 46.7688 20.0852 46.7891 20.0446C47.5026 18.6043 46.9135 16.8585 45.4737 16.145C43.7786 15.5265 42.2464 15.9436 41.574 17.4603C41.5537 17.502 41.5377 17.5442 41.5195 17.5858C42.4595 17.8406 43.3754 18.1856 44.248 18.6182C45.1298 19.055 45.957 19.5747 46.7245 20.1643Z" fill="rgb(108, 117, 125)"/>
<circle cx="55" cy="52" r="15" fill="#FAFBFE"/>
<path d="M48.25 50.4223L53.5596 56.1178L62.2349 47.5" stroke="#7876F2" stroke-width="4" stroke-linecap="round" stroke-linejoin="round"/>
</svg>
