<svg width="21" height="20" viewBox="0 0 21 20" fill="none" xmlns="http://www.w3.org/2000/svg">
<path fill-rule="evenodd" clip-rule="evenodd" d="M0.5 10C0.5 15.5228 4.97715 20 10.5 20C16.0228 20 20.5 15.5228 20.5 10C20.5 4.47715 16.0228 0 10.5 0C4.97715 0 0.5 4.47715 0.5 10ZM18.6818 10C18.6818 14.5187 15.0187 18.1818 10.5 18.1818C5.98131 18.1818 2.31818 14.5187 2.31818 10C2.31818 5.48131 5.98131 1.81818 10.5 1.81818C15.0187 1.81818 18.6818 5.48131 18.6818 10Z" fill="#7FCCC6"/>
<path fill-rule="evenodd" clip-rule="evenodd" d="M9 11.2322L14.2929 5.93934L15.7071 7.35355L9 14.0607L5.29289 10.3536L6.70711 8.93934L9 11.2322Z" fill="#7FCCC6"/>
</svg>
