<svg width="22" height="20" viewBox="0 0 22 20" fill="none" xmlns="http://www.w3.org/2000/svg">
<path d="M9.99997 8.00012H12V13.0001H9.99997V8.00012Z" fill="rgb(250, 92, 124)"/>
<path d="M11 14.0001C10.4477 14.0001 9.99997 14.4478 9.99997 15.0001C9.99997 15.5524 10.4477 16.0001 11 16.0001C11.5523 16.0001 12 15.5524 12 15.0001C12 14.4478 11.5523 14.0001 11 14.0001Z" fill="#7876F2"/>
<path fill-rule="evenodd" clip-rule="evenodd" d="M1.73441 19.0022C0.964075 19.0022 0.483015 18.1678 0.868979 17.5012L10.1345 1.49701C10.5197 0.831727 11.4802 0.831724 11.8654 1.49701L21.1309 17.5011C21.5169 18.1678 21.0358 19.0022 20.2655 19.0022H1.73441ZM18.5311 17.0022L11 3.99391L3.46885 17.0022H18.5311Z" fill="#7876F2"/>
<path d="M9.99997 14.0001H12V16.0001H9.99997V14.0001Z" fill="rgb(250, 92, 124)"/>
</svg>
