<svg width="24" height="24" viewBox="0 0 24 24" fill="none" xmlns="http://www.w3.org/2000/svg">
<path d="M12 2L24 22H0L12 2Z" fill="#FA5C7C"/>
<path d="M15.7639 14.2645L11.3146 10.2151L10.6404 10.8287L11.0435 11.2564C10.8077 12.3292 9.60394 13.6545 8.75387 14.4281L7.25415 15.793C6.91531 16.1014 6.91525 16.6005 7.25415 16.9089L8.07155 17.6528C8.41037 17.9612 8.95881 17.9612 9.29767 17.6528L9.50203 17.4668L10.9325 18.7687C11.2713 19.0771 11.8198 19.0771 12.1586 18.7687C12.4967 18.4611 12.4967 17.9605 12.1586 17.6528L11.5455 17.0949L11.7499 16.9089C12.0887 16.6005 12.0888 16.1014 11.7499 15.793L11.611 15.6666C12.2942 15.2313 13.7 14.5789 14.5285 14.4281L15.0898 14.7553C15.0898 14.763 15.4044 14.5099 15.7639 14.2645ZM10.7788 16.3879C10.8656 16.3088 10.9957 16.1877 11.2009 16.0282L11.3412 16.165C11.4541 16.2678 11.4076 16.4259 11.2946 16.5287L11.1399 16.6696L10.7788 16.3879Z" fill="white"/>
<path d="M13.5668 10.6131L13.2979 11.1199C14.0155 11.4821 14.5392 12.0934 14.6713 12.7826L15.2603 12.5977C15.0721 11.7683 14.4375 11.0426 13.5668 10.6131Z" fill="white"/>
<path d="M14.3065 10L14.0376 10.5067C14.7552 10.8689 15.2789 11.4802 15.411 12.1694L16 11.9846C15.8118 11.1551 15.1772 10.4295 14.3065 10Z" fill="white"/>
</svg>
