<svg width="21" height="20" viewBox="0 0 21 20" fill="none" xmlns="http://www.w3.org/2000/svg">
<path fill-rule="evenodd" clip-rule="evenodd" d="M10.5 0C4.97 0 0.5 4.47 0.5 10C0.5 15.53 4.97 20 10.5 20C16.03 20 20.5 15.53 20.5 10C20.5 4.47 16.03 0 10.5 0ZM13.09 6L10.5 8.59L7.91 6L6.5 7.41L9.09 10L6.5 12.59L7.91 14L10.5 11.41L13.09 14L14.5 12.59L11.91 10L14.5 7.41L13.09 6ZM2.5 10C2.5 14.41 6.09 18 10.5 18C14.91 18 18.5 14.41 18.5 10C18.5 5.59 14.91 2 10.5 2C6.09 2 2.5 5.59 2.5 10Z" fill="#FA5C7C"/>
</svg>
