<svg width="39" height="45" viewBox="0 0 39 45" fill="none" xmlns="http://www.w3.org/2000/svg">
<g filter="url(#filter0_d)">
<circle cx="16" cy="22" r="16" fill="#FA5C7C"/>
</g>
<g opacity="0.8" filter="url(#filter1_f)">
<circle cx="16.5" cy="22.5" r="7.5" fill="white"/>
</g>
<path d="M16.375 20.875V24H20.625C20 25.6875 18.375 26.8125 16.5 26.8125C14.0625 26.8125 12.125 24.875 12.125 22.4375C12.125 20 14.0625 18.0625 16.5 18.0625C17.4375 18.0625 18.3125 18.375 19.0625 18.875L19.3125 19.0625L21.1875 16.625L20.9375 16.4375C19.625 15.5 18.125 15 16.5 15C12.375 15 9 18.375 9 22.5C9 26.625 12.375 30 16.5 30C20.625 30 24 26.625 24 22.5V20.9375H16.375V20.875Z" fill="white"/>
<defs>
<filter id="filter0_d" x="-1" y="5" width="34" height="34" filterUnits="userSpaceOnUse" color-interpolation-filters="sRGB">
<feFlood flood-opacity="0" result="BackgroundImageFix"/>
<feColorMatrix in="SourceAlpha" type="matrix" values="0 0 0 0 0 0 0 0 0 0 0 0 0 0 0 0 0 0 127 0"/>
<feMorphology radius="1" operator="erode" in="SourceAlpha" result="effect1_dropShadow"/>
<feOffset/>
<feGaussianBlur stdDeviation="1"/>
<feColorMatrix type="matrix" values="0 0 0 0 1 0 0 0 0 1 0 0 0 0 1 0 0 0 1 0"/>
<feBlend mode="normal" in2="BackgroundImageFix" result="effect1_dropShadow"/>
<feBlend mode="normal" in="SourceGraphic" in2="effect1_dropShadow" result="shape"/>
</filter>
<filter id="filter1_f" x="-6" y="0" width="45" height="45" filterUnits="userSpaceOnUse" color-interpolation-filters="sRGB">
<feFlood flood-opacity="0" result="BackgroundImageFix"/>
<feBlend mode="normal" in="SourceGraphic" in2="BackgroundImageFix" result="shape"/>
<feGaussianBlur stdDeviation="7.5" result="effect1_foregroundBlur"/>
</filter>
</defs>
</svg>
