<svg width="40" height="40" viewBox="0 0 40 40" fill="none" xmlns="http://www.w3.org/2000/svg">
<path d="M36.5329 11.0333C36.3638 10.6261 36.0401 10.3025 35.6329 10.1333C35.4325 10.0479 35.2174 10.0026 34.9996 10H26.6662C26.2242 10 25.8003 10.1756 25.4877 10.4882C25.1752 10.8007 24.9996 11.2246 24.9996 11.6667C24.9996 12.1087 25.1752 12.5326 25.4877 12.8452C25.8003 13.1577 26.2242 13.3333 26.6662 13.3333H30.9829L21.6662 22.65L16.1829 17.15C16.028 16.9938 15.8436 16.8698 15.6405 16.7852C15.4374 16.7006 15.2196 16.657 14.9996 16.657C14.7796 16.657 14.5617 16.7006 14.3586 16.7852C14.1555 16.8698 13.9712 16.9938 13.8162 17.15L3.81624 27.15C3.66003 27.3049 3.53603 27.4893 3.45142 27.6924C3.36681 27.8955 3.32324 28.1133 3.32324 28.3333C3.32324 28.5534 3.36681 28.7712 3.45142 28.9743C3.53603 29.1774 3.66003 29.3617 3.81624 29.5167C3.97118 29.6729 4.15551 29.7969 4.35861 29.8815C4.56171 29.9661 4.77955 30.0097 4.99957 30.0097C5.21959 30.0097 5.43743 29.9661 5.64053 29.8815C5.84363 29.7969 6.02797 29.6729 6.18291 29.5167L14.9996 20.6833L20.4829 26.1833C20.6378 26.3395 20.8222 26.4635 21.0253 26.5482C21.2284 26.6328 21.4462 26.6763 21.6662 26.6763C21.8863 26.6763 22.1041 26.6328 22.3072 26.5482C22.5103 26.4635 22.6946 26.3395 22.8496 26.1833L33.3329 15.6833V20C33.3329 20.442 33.5085 20.8659 33.8211 21.1785C34.1336 21.4911 34.5575 21.6667 34.9996 21.6667C35.4416 21.6667 35.8655 21.4911 36.1781 21.1785C36.4906 20.8659 36.6662 20.442 36.6662 20V11.6667C36.6636 11.4489 36.6183 11.2337 36.5329 11.0333Z" fill="#7FCCC6"/>
</svg>
