<svg width="40" height="40" viewBox="0 0 40 40" fill="none" xmlns="http://www.w3.org/2000/svg">
<path d="M3.4671 28.9667C3.63622 29.3739 3.95985 29.6975 4.3671 29.8667C4.56747 29.9521 4.78263 29.9974 5.00043 30H13.3338C13.7758 30 14.1997 29.8244 14.5123 29.5118C14.8248 29.1993 15.0004 28.7754 15.0004 28.3333C15.0004 27.8913 14.8248 27.4674 14.5123 27.1548C14.1997 26.8423 13.7758 26.6667 13.3338 26.6667H9.0171L18.3338 17.35L23.8171 22.85C23.972 23.0062 24.1564 23.1302 24.3595 23.2148C24.5626 23.2994 24.7804 23.343 25.0004 23.343C25.2204 23.343 25.4383 23.2994 25.6414 23.2148C25.8445 23.1302 26.0288 23.0062 26.1838 22.85L36.1838 12.85C36.34 12.6951 36.464 12.5107 36.5486 12.3076C36.6332 12.1045 36.6768 11.8867 36.6768 11.6667C36.6768 11.4466 36.6332 11.2288 36.5486 11.0257C36.464 10.8226 36.34 10.6383 36.1838 10.4833C36.0288 10.3271 35.8445 10.2031 35.6414 10.1185C35.4383 10.0339 35.2204 9.99034 35.0004 9.99034C34.7804 9.99034 34.5626 10.0339 34.3595 10.1185C34.1564 10.2031 33.972 10.3271 33.8171 10.4833L25.0004 19.3167L19.5171 13.8167C19.3622 13.6605 19.1778 13.5365 18.9747 13.4518C18.7716 13.3672 18.5538 13.3237 18.3338 13.3237C18.1137 13.3237 17.8959 13.3672 17.6928 13.4518C17.4897 13.5365 17.3054 13.6605 17.1504 13.8167L6.6671 24.3167V20C6.6671 19.558 6.4915 19.1341 6.17894 18.8215C5.86638 18.5089 5.44246 18.3333 5.00043 18.3333C4.5584 18.3333 4.13448 18.5089 3.82192 18.8215C3.50936 19.1341 3.33376 19.558 3.33376 20V28.3333C3.3364 28.5511 3.38169 28.7663 3.4671 28.9667Z" fill="#FA5C7C"/>
</svg>
