<svg width="66" height="51" viewBox="0 0 66 51" fill="none" xmlns="http://www.w3.org/2000/svg">
<path d="M59.2499 15.3333C55.0207 15.3333 52.6582 19.5333 53.6207 22.6541L43.2666 33.0374C42.3916 32.7749 41.1082 32.7749 40.2332 33.0374L32.7957 25.5999C33.7874 22.4791 31.4249 18.2499 27.1666 18.2499C22.9374 18.2499 20.5457 22.4499 21.5374 25.5999L8.2374 38.8707C5.11657 37.9082 0.916565 40.2707 0.916565 44.4999C0.916565 47.7082 3.54157 50.3332 6.7499 50.3332C10.9791 50.3332 13.3416 46.1332 12.3791 43.0124L25.6499 29.7124C26.5249 29.9749 27.8082 29.9749 28.6832 29.7124L36.1207 37.1499C35.1291 40.2707 37.4916 44.4999 41.7499 44.4999C45.9791 44.4999 48.3707 40.2999 47.3791 37.1499L57.7624 26.7958C60.8832 27.7583 65.0832 25.3958 65.0832 21.1666C65.0832 17.9583 62.4582 15.3333 59.2499 15.3333Z" fill="rgb(108, 117, 125)"/>
<path d="M41.75 18.25L44.4917 12.2125L50.5 9.5L44.4917 6.7875L41.75 0.75L39.0667 6.7875L33 9.5L39.0667 12.2125L41.75 18.25Z" fill="rgb(108, 117, 125)"/>
<path d="M8.20823 24.0833L9.66656 18.25L15.4999 16.7917L9.66656 15.3333L8.20823 9.5L6.7499 15.3333L0.916565 16.7917L6.7499 18.25L8.20823 24.0833Z" fill="rgb(108, 117, 125)"/>
</svg>
