<svg width="44" height="44" viewBox="0 0 44 44" fill="none" xmlns="http://www.w3.org/2000/svg">
<circle cx="22" cy="22" r="16" fill="#FA5C7C"/>
<g opacity="0.8" filter="url(#filter0_f)">
<circle cx="22" cy="22" r="7" fill="white"/>
</g>
<path d="M27.7231 14H16.2769C14.9846 14 14 14.9846 14 16.2769V27.7231C14 29.0154 14.9846 30 16.2769 30H27.7231C29.0154 30 30 29.0154 30 27.7231V16.2769C30 14.9846 29.0154 14 27.7231 14ZM22 26.8C24.6462 26.8 26.8 24.7077 26.8 22.1846C26.8 21.7538 26.7385 21.2615 26.6154 20.8923H27.9692V27.4154C27.9692 27.7231 27.7231 28.0308 27.3538 28.0308H16.6462C16.3385 28.0308 16.0308 27.7846 16.0308 27.4154V20.8308H17.4462C17.3231 21.2615 17.2615 21.6923 17.2615 22.1231C17.2 24.7077 19.3538 26.8 22 26.8ZM22 24.9538C20.2769 24.9538 18.9231 23.6 18.9231 21.9385C18.9231 20.2769 20.2769 18.9231 22 18.9231C23.7231 18.9231 25.0769 20.2769 25.0769 21.9385C25.0769 23.6615 23.7231 24.9538 22 24.9538ZM27.9077 18.3692C27.9077 18.7385 27.6 19.0462 27.2308 19.0462H25.5077C25.1385 19.0462 24.8308 18.7385 24.8308 18.3692V16.7077C24.8308 16.3385 25.1385 16.0308 25.5077 16.0308H27.2308C27.6 16.0308 27.9077 16.3385 27.9077 16.7077V18.3692Z" fill="white"/>
<defs>
<filter id="filter0_f" x="0" y="0" width="44" height="44" filterUnits="userSpaceOnUse" color-interpolation-filters="sRGB">
<feFlood flood-opacity="0" result="BackgroundImageFix"/>
<feBlend mode="normal" in="SourceGraphic" in2="BackgroundImageFix" result="shape"/>
<feGaussianBlur stdDeviation="7.5" result="effect1_foregroundBlur"/>
</filter>
</defs>
</svg>
