<svg width="20" height="20" viewBox="0 0 20 20" fill="#bbbbf9" xmlns="http://www.w3.org/2000/svg">
<path d="M14.4792 8.05523H13.8021V6.70602C13.8021 4.84412 12.2854 3.33301 10.4167 3.33301C8.54792 3.33301 7.03125 4.84412 7.03125 6.70602V8.05523H6.35417C5.60938 8.05523 5 8.66237 5 9.40444V16.1505C5 16.8925 5.60938 17.4997 6.35417 17.4997H14.4792C15.224 17.4997 15.8333 16.8925 15.8333 16.1505V9.40444C15.8333 8.66237 15.224 8.05523 14.4792 8.05523ZM8.38542 6.70602C8.38542 5.58618 9.29271 4.68221 10.4167 4.68221C11.5406 4.68221 12.4479 5.58618 12.4479 6.70602V8.05523H8.38542V6.70602ZM14.4792 16.1505H6.35417V9.40444H14.4792V16.1505ZM10.4167 16.1505C11.1615 16.1505 15.8333 19.2536 15.2911 12.3727C15.2911 6.30123 11.1609 9.13456 10.4161 9.13456C9.67135 9.13456 5.13489 6.70599 5.54114 12.3727C4.72864 19.2536 9.67188 16.1505 10.4167 16.1505Z" fill="bbbbf9"/>
</svg>
