<svg width="21" height="20" viewBox="0 0 21 20" fill="none" xmlns="http://www.w3.org/2000/svg">
<path d="M15.5002 6.66658H14.6668V4.99992C14.6668 2.69992 12.8002 0.833252 10.5002 0.833252C8.20016 0.833252 6.3335 2.69992 6.3335 4.99992V6.66658H5.50016C4.5835 6.66658 3.8335 7.41659 3.8335 8.33325V16.6666C3.8335 17.5833 4.5835 18.3333 5.50016 18.3333H15.5002C16.4168 18.3333 17.1668 17.5833 17.1668 16.6666V8.33325C17.1668 7.41659 16.4168 6.66658 15.5002 6.66658ZM8.00016 4.99992C8.00016 3.61659 9.11683 2.49992 10.5002 2.49992C11.8835 2.49992 13.0002 3.61659 13.0002 4.99992V6.66658H8.00016V4.99992ZM15.5002 16.6666H5.50016V8.33325H15.5002V16.6666ZM10.5002 16.6666C11.4168 16.6666 17.1668 20.4999 16.4995 11.9999C16.4995 4.49988 11.4162 7.99988 10.4995 7.99988C9.58285 7.99988 3.99951 4.99988 4.49951 11.9999C3.49951 20.4999 9.5835 16.6666 10.5002 16.6666Z" fill="rgb(108, 117, 125)"/>
</svg>
