<svg width="30" height="30" viewBox="0 0 30 30" fill="none" xmlns="http://www.w3.org/2000/svg">
<path d="M20.951 14.271H20.801H5.38849C4.98593 14.271 4.65952 14.5974 4.65952 15C4.65952 15.4026 4.98592 15.7289 5.38849 15.7289H20.8009H20.9509V15.8789V17.2629C20.9509 17.8554 21.6207 18.1964 22.0998 17.8587L25.3098 15.5957L25.3098 15.5957C25.7164 15.3093 25.724 14.6968 25.3099 14.4042L20.951 14.271ZM20.951 14.271V14.121V12.7369C20.951 12.1476 21.6179 11.8013 22.1 12.1412L25.3098 14.4041L20.951 14.271Z" fill="rgb(108, 117, 125)" stroke="#DADDFA" stroke-width="0.3"/>
<path d="M24.1518 8.96064L24.0219 9.03574L24.1518 8.96063C22.0627 5.34922 18.1566 2.92037 13.6877 2.92037C7.02675 2.92037 1.60787 8.33925 1.60787 15.0002C1.60787 21.6611 7.02675 27.08 13.6877 27.08C18.1536 27.08 22.0615 24.6534 24.1518 21.0396C24.3534 20.6911 24.7994 20.5721 25.1478 20.7736C25.4963 20.9752 25.6153 21.4211 25.4138 21.7696C23.066 25.8281 18.6808 28.5378 13.6877 28.5378C6.20466 28.5378 0.15 22.4826 0.15 15.0002C0.15 7.51716 6.2053 1.4625 13.6877 1.4625C18.6786 1.4625 23.065 4.17033 25.4137 8.23064C25.6153 8.57912 25.4962 9.02508 25.1477 9.22664C24.7994 9.42806 24.3533 9.3091 24.1518 8.96064Z" fill="rgb(108, 117, 125)" stroke="#DADDFA" stroke-width="0.3"/>
</svg>
