<svg width="30" height="31" viewBox="0 0 30 31" fill="none" xmlns="http://www.w3.org/2000/svg">
<path d="M22.9512 14.959H22.8012H7.38873C6.98618 14.959 6.65977 15.2854 6.65977 15.688C6.65977 16.0906 6.98616 16.4169 7.38873 16.4169H22.8011H22.9511V16.5669V17.9509C22.9511 18.5434 23.621 18.8844 24.1001 18.5467L27.31 16.2837L27.3101 16.2837C27.7166 15.9972 27.7242 15.3848 27.3102 15.0922L22.9512 14.959ZM22.9512 14.959V14.809V13.4249C22.9512 12.8356 23.6181 12.4893 24.1003 12.8292L27.3101 15.0921L22.9512 14.959Z" fill="white" stroke="#7D7CAB" stroke-width="0.3"/>
<path d="M26.1518 9.64814L26.0219 9.72324L26.1518 9.64813C24.0627 6.03672 20.1566 3.60787 15.6877 3.60787C9.02675 3.60787 3.60787 9.02675 3.60787 15.6877C3.60787 22.3486 9.02675 27.7675 15.6877 27.7675C20.1536 27.7675 24.0615 25.3409 26.1518 21.7271C26.3534 21.3786 26.7994 21.2596 27.1478 21.4611C27.4963 21.6627 27.6153 22.1086 27.4138 22.4571C25.066 26.5156 20.6808 29.2253 15.6877 29.2253C8.20466 29.2253 2.15 23.1701 2.15 15.6877C2.15 8.20466 8.2053 2.15 15.6877 2.15C20.6786 2.15 25.065 4.85783 27.4137 8.91814C27.6153 9.26662 27.4962 9.71258 27.1477 9.91414C26.7994 10.1156 26.3533 9.9966 26.1518 9.64814Z" fill="white" stroke="#7D7CAB" stroke-width="0.3"/>
</svg>
