<svg width="28" height="18" viewBox="0 0 28 18" fill="none" xmlns="http://www.w3.org/2000/svg">
<path d="M10.6665 4.00001C10.6665 2.15906 12.1589 0.666672 13.9998 0.666672C15.8408 0.666672 17.3332 2.15906 17.3332 4.00001C17.3332 5.84095 15.8408 7.33334 13.9998 7.33334C12.1589 7.33334 10.6665 5.84095 10.6665 4.00001ZM20.6665 4.00001C20.6665 2.15906 22.1589 0.666672 23.9998 0.666672C25.8408 0.666672 27.3332 2.15906 27.3332 4.00001C27.3332 5.84095 25.8408 7.33334 23.9998 7.33334C22.1589 7.33334 20.6665 5.84095 20.6665 4.00001ZM0.666504 4.00001C0.666504 2.15906 2.15889 0.666672 3.99984 0.666672C5.84079 0.666672 7.33317 2.15906 7.33317 4.00001C7.33317 5.84095 5.84079 7.33334 3.99984 7.33334C2.15889 7.33334 0.666504 5.84095 0.666504 4.00001ZM10.6665 14C10.6665 12.1591 12.1589 10.6667 13.9998 10.6667C15.8408 10.6667 17.3332 12.1591 17.3332 14C17.3332 15.841 15.8408 17.3333 13.9998 17.3333C12.1589 17.3333 10.6665 15.841 10.6665 14ZM20.6665 14C20.6665 12.1591 22.1589 10.6667 23.9998 10.6667C25.8408 10.6667 27.3332 12.1591 27.3332 14C27.3332 15.841 25.8408 17.3333 23.9998 17.3333C22.1589 17.3333 20.6665 15.841 20.6665 14ZM0.666504 14C0.666504 12.1591 2.15889 10.6667 3.99984 10.6667C5.84079 10.6667 7.33317 12.1591 7.33317 14C7.33317 15.841 5.84079 17.3333 3.99984 17.3333C2.15889 17.3333 0.666504 15.841 0.666504 14Z" fill="#7876F2"/>
</svg>
