<svg width="40" height="40" viewBox="0 0 40 40" fill="none" xmlns="http://www.w3.org/2000/svg">
<g opacity="0.5">
<path fill-rule="evenodd" clip-rule="evenodd" d="M20.0007 3.33334C10.784 3.33334 3.33398 10.7833 3.33398 20C3.33398 29.2167 10.784 36.6667 20.0007 36.6667C29.2173 36.6667 36.6673 29.2167 36.6673 20C36.6673 10.7833 29.2173 3.33334 20.0007 3.33334ZM24.3173 13.3333L20.0007 17.65L15.684 13.3333L13.334 15.6833L17.6507 20L13.334 24.3167L15.684 26.6667L20.0007 22.35L24.3173 26.6667L26.6673 24.3167L22.3507 20L26.6673 15.6833L24.3173 13.3333ZM6.66732 20C6.66732 27.35 12.6507 33.3333 20.0007 33.3333C27.3507 33.3333 33.334 27.35 33.334 20C33.334 12.65 27.3507 6.66668 20.0007 6.66668C12.6507 6.66668 6.66732 12.65 6.66732 20Z" fill="white"/>
</g>
</svg>
