<svg width="70" height="70" viewBox="0 0 70 70" fill="none" xmlns="http://www.w3.org/2000/svg">
<path d="M57.05 37.0972H52.2551C52.7439 38.4353 53.0109 39.8793 53.0109 41.3844V59.5063C53.0109 60.1338 52.9017 60.7361 52.7029 61.2963H60.6299C63.5911 61.2963 66 58.8872 66 55.9262V46.0472C66.0001 41.1122 61.9851 37.0972 57.05 37.0972Z" fill="rgb(108, 117, 125)"/>
<path d="M16.989 41.3849C16.989 39.8797 17.256 38.4358 17.7447 37.0977H12.9498C8.01474 37.0977 3.99971 41.1127 3.99971 46.0478V55.9268C3.99971 58.8879 6.40865 61.2969 9.36979 61.2969H17.2969C17.0982 60.7365 16.989 60.1343 16.989 59.5068V41.3849Z" fill="rgb(108, 117, 125)"/>
<path d="M40.4808 32.4346H29.5191C24.584 32.4346 20.5689 36.4496 20.5689 41.3847V59.5066C20.5689 60.4951 21.3703 61.2966 22.359 61.2966H47.6409C48.6296 61.2966 49.431 60.4952 49.431 59.5066V41.3847C49.431 36.4496 45.4159 32.4346 40.4808 32.4346Z" fill="rgb(108, 117, 125)"/>
<path d="M35.0005 8.70312C29.0654 8.70312 24.2368 13.5317 24.2368 19.4669C24.2368 23.4927 26.4588 27.0087 29.7402 28.8547C31.2967 29.7302 33.091 30.2306 35.0005 30.2306C36.9099 30.2306 38.7043 29.7302 40.2607 28.8547C43.5423 27.0087 45.7641 23.4926 45.7641 19.4669C45.7641 13.5318 40.9356 8.70312 35.0005 8.70312Z" fill="rgb(108, 117, 125)"/>
<path d="M16.0993 18.7358C11.6605 18.7358 8.04947 22.3469 8.04947 26.7856C8.04947 31.2244 11.6605 34.8354 16.0993 34.8354C17.2252 34.8354 18.2974 34.6022 19.2713 34.183C20.9553 33.458 22.3438 32.1746 23.2029 30.5671C23.806 29.4388 24.1491 28.1517 24.1491 26.7856C24.1491 22.347 20.538 18.7358 16.0993 18.7358Z" fill="rgb(108, 117, 125)"/>
<path d="M53.9007 18.7358C49.462 18.7358 45.8509 22.3469 45.8509 26.7856C45.8509 28.1518 46.194 29.439 46.7971 30.5671C47.6562 32.1747 49.0447 33.4581 50.7287 34.183C51.7026 34.6022 52.7748 34.8354 53.9007 34.8354C58.3395 34.8354 61.9505 31.2244 61.9505 26.7856C61.9505 22.3469 58.3395 18.7358 53.9007 18.7358Z" fill="rgb(108, 117, 125)"/>
</svg>
