<svg width="20" height="17" viewBox="0 0 20 17" fill="none" xmlns="http://www.w3.org/2000/svg">
<path d="M7.71503 8.5C8.86603 8.5 9.71503 7.651 9.71503 6.5C9.71503 5.349 8.86603 4.5 7.71503 4.5C6.56403 4.5 5.71503 5.349 5.71503 6.5C5.71503 7.651 6.56303 8.5 7.71503 8.5Z" fill="white"/>
<path d="M16 5.5H12V7.5H16V5.5Z" fill="white"/>
<path d="M16 9.5H13V11.5H16V9.5Z" fill="white"/>
<path d="M7.715 9.25C9.754 9.25 11.43 11.126 11.43 12.5H4C4 11.126 5.676 9.25 7.715 9.25Z" fill="white"/>
<path fill-rule="evenodd" clip-rule="evenodd" d="M18 0.5H2C0.897 0.5 0 1.341 0 2.375V14.625C0 15.659 0.897 16.5 2 16.5H18C19.103 16.5 20 15.659 20 14.625V2.375C20 1.341 19.103 0.5 18 0.5ZM18 14.5L2 14.489V2.5L18 2.511V14.5Z" fill="white"/>
</svg>
