<svg width="12" height="12" viewBox="0 0 12 12" fill="none" xmlns="http://www.w3.org/2000/svg">
<path d="M6.00375 0C7.66133 0 9.15962 0.670476 10.2439 1.755L12 0V5.25H6.74672L9.16323 2.835C8.35339 2.01817 7.24386 1.50085 5.99933 1.5C4.04252 1.50189 2.37852 2.75381 1.7636 4.5H1.75034C1.66482 4.74126 1.59934 4.99193 1.55589 5.25H0.0462714C0.414321 2.2893 2.93334 0 5.99625 0H6.00375Z" fill="white"/>
<path d="M0 6.75V12L1.7561 10.245C2.84038 11.3295 4.33867 12 5.99625 12L6.00375 12C9.06666 12 11.5857 9.7107 11.9537 6.75H10.4441C10.4007 7.00807 10.3352 7.25874 10.2497 7.5H10.2364C9.6215 9.24612 7.9576 10.498 6.00089 10.5C4.75627 10.4992 3.64666 9.98187 2.83677 9.165L5.25328 6.75H0Z" fill="white"/>
</svg>
