<svg width="30" height="30" viewBox="0 0 30 30" fill="none" xmlns="http://www.w3.org/2000/svg">
<path d="M29.1011 18.2887L26.3436 16.1325C26.3799 15.8 26.4086 15.4113 26.4086 15C26.4086 14.5887 26.3786 14.2 26.3436 13.8675L29.1036 11.71C29.6161 11.305 29.7573 10.5862 29.4298 9.98754L26.5623 5.02629C26.2486 4.45506 25.5448 4.19379 24.9036 4.43004L21.6498 5.73627C21.0273 5.28627 20.3736 4.90629 19.6973 4.60254L19.2023 1.15131C19.1211 0.495 18.5511 0 17.8773 0H12.1273C11.4536 0 10.8836 0.495 10.8036 1.13877L10.3074 4.60254C9.65234 4.89879 9.00863 5.27256 8.35736 5.73756L5.09486 4.42758C4.47113 4.18383 3.76109 4.44135 3.44861 5.01381L0.577341 9.98256C0.23861 10.5551 0.37736 11.2976 0.90236 11.7125L3.65984 13.8676C3.61607 14.2901 3.59486 14.6563 3.59486 15.0001C3.59486 15.3438 3.61613 15.71 3.65738 16.1326L0.89738 18.2913C0.386091 18.6963 0.246051 19.415 0.572301 20.0138L3.43982 24.975C3.75107 25.545 4.45355 25.805 5.09855 25.5712L8.35232 24.265C8.97482 24.7138 9.62984 25.0938 10.3061 25.3987L10.8011 28.8487C10.8823 29.505 11.4523 30 12.1261 30H17.876C18.5498 30 19.1198 29.505 19.1998 28.8612L19.696 25.3987C20.351 25.1025 20.9947 24.7287 21.646 24.2637L24.9085 25.5737C25.5298 25.8149 26.2423 25.5599 26.5548 24.9875L29.4373 20.0012C29.7561 19.4163 29.6161 18.6975 29.1011 18.2887ZM28.3448 19.3887L25.3673 24.4112L21.7886 22.9737C21.5861 22.8925 21.3561 22.9237 21.1811 23.0537C20.4061 23.6337 19.6573 24.07 18.8898 24.3837C18.6848 24.4675 18.5386 24.6537 18.5073 24.8737L17.8761 28.75L12.0423 28.6838L11.4961 24.875C11.4635 24.655 11.3186 24.4688 11.1136 24.385C10.3148 24.0575 9.54605 23.6112 8.82728 23.0587C8.71601 22.9724 8.58101 22.9287 8.44601 22.9287C8.36726 22.9287 8.28851 22.9424 8.21228 22.9737L4.53101 24.3624L1.66349 19.4012C1.63724 19.3524 1.64222 19.2962 1.67222 19.2724L4.70597 16.9012C4.87847 16.7662 4.96847 16.5487 4.94099 16.3312C4.87472 15.8074 4.84472 15.3837 4.84472 14.9999C4.84472 14.6162 4.87595 14.1937 4.94099 13.6687C4.96847 13.45 4.87847 13.2337 4.70597 13.0987L1.65734 10.6125L4.63484 5.59002L8.21357 7.0275C8.4173 7.11 8.64605 7.07877 8.8223 6.94752C9.59603 6.36627 10.346 5.93127 11.1136 5.6175C11.3186 5.53248 11.4635 5.34627 11.4948 5.12748L12.1273 1.24998L17.9623 1.31748L18.5073 5.12748C18.5398 5.3475 18.6848 5.53371 18.8898 5.6175C19.6873 5.94375 20.4561 6.39 21.1761 6.94377C21.3523 7.07877 21.5836 7.11129 21.7899 7.0275L25.4711 5.63877L28.3386 10.6C28.3649 10.6488 28.3599 10.7038 28.3299 10.7275L25.2962 13.0988C25.1237 13.2338 25.0337 13.45 25.0611 13.6687C25.1087 14.0487 25.1574 14.505 25.1574 15C25.1574 15.4962 25.1087 15.9513 25.0611 16.3312C25.0337 16.5487 25.1237 16.7663 25.2962 16.9012L28.3262 19.2712C28.3586 19.2975 28.3648 19.3538 28.3448 19.3887Z" fill="rgb(108, 117, 125)"/>
<path d="M15.001 8.75C11.5547 8.75 8.75098 11.5538 8.75098 15C8.75098 18.4463 11.5547 21.25 15.001 21.25C18.4472 21.25 21.251 18.4463 21.251 15C21.251 11.5538 18.4472 8.75 15.001 8.75ZM15.001 20C12.2435 20 10.001 17.7575 10.001 15C10.001 12.2425 12.2435 10 15.001 10C17.7585 10 20.001 12.2425 20.001 15C20.001 17.7575 17.7585 20 15.001 20Z" fill="rgb(108, 117, 125)"/>
</svg>
