<svg width="30" height="31" viewBox="0 0 30 31" fill="none" xmlns="http://www.w3.org/2000/svg">
<g clip-path="url(#clip0)">
<path d="M29.1008 18.7887L26.3433 16.6325C26.3796 16.3 26.4083 15.9113 26.4083 15.5C26.4083 15.0887 26.3783 14.7 26.3433 14.3675L29.1033 12.21C29.6159 11.805 29.7571 11.0862 29.4296 10.4875L26.5621 5.52629C26.2483 4.95506 25.5446 4.69379 24.9033 4.93004L21.6496 6.23627C21.0271 5.78627 20.3733 5.40629 19.6971 5.10254L19.2021 1.65131C19.1208 0.995 18.5508 0.5 17.8771 0.5H12.1271C11.4533 0.5 10.8833 0.995 10.8033 1.63877L10.3071 5.10254C9.6521 5.39879 9.00839 5.77256 8.35712 6.23756L5.09462 4.92758C4.47089 4.68383 3.76085 4.94135 3.44837 5.51381L0.577096 10.4826C0.238366 11.0551 0.377116 11.7976 0.902116 12.2125L3.6596 14.3676C3.61583 14.7901 3.59462 15.1563 3.59462 15.5001C3.59462 15.8438 3.61589 16.21 3.65714 16.6326L0.897135 18.7913C0.385846 19.1963 0.245807 19.915 0.572057 20.5138L3.43958 25.475C3.75083 26.045 4.45331 26.305 5.09831 26.0712L8.35208 24.765C8.97458 25.2138 9.6296 25.5938 10.3058 25.8987L10.8008 29.3487C10.8821 30.005 11.4521 30.5 12.1258 30.5H17.8758C18.5496 30.5 19.1196 30.005 19.1995 29.3612L19.6958 25.8987C20.3508 25.6025 20.9945 25.2287 21.6458 24.7637L24.9083 26.0737C25.5295 26.3149 26.242 26.0599 26.5545 25.4875L29.437 20.5012C29.7558 19.9163 29.6158 19.1975 29.1008 18.7887ZM28.3446 19.8887L25.3671 24.9112L21.7883 23.4737C21.5858 23.3925 21.3558 23.4237 21.1808 23.5537C20.4058 24.1337 19.6571 24.57 18.8896 24.8837C18.6846 24.9675 18.5383 25.1537 18.5071 25.3737L17.8758 29.25L12.0421 29.1838L11.4958 25.375C11.4633 25.155 11.3183 24.9688 11.1133 24.885C10.3146 24.5575 9.54581 24.1112 8.82704 23.5587C8.71577 23.4724 8.58077 23.4287 8.44577 23.4287C8.36702 23.4287 8.28827 23.4424 8.21204 23.4737L4.53077 24.8624L1.66325 19.9012C1.637 19.8524 1.64198 19.7962 1.67198 19.7724L4.70573 17.4012C4.87823 17.2662 4.96823 17.0487 4.94075 16.8312C4.87448 16.3074 4.84448 15.8837 4.84448 15.4999C4.84448 15.1162 4.87571 14.6937 4.94075 14.1687C4.96823 13.95 4.87823 13.7337 4.70573 13.5987L1.6571 11.1125L4.6346 6.09002L8.21333 7.5275C8.41706 7.61 8.64581 7.57877 8.82206 7.44752C9.59579 6.86627 10.3458 6.43127 11.1133 6.1175C11.3183 6.03248 11.4633 5.84627 11.4946 5.62748L12.1271 1.74998L17.9621 1.81748L18.5071 5.62748C18.5396 5.8475 18.6846 6.03371 18.8896 6.1175C19.6871 6.44375 20.4558 6.89 21.1758 7.44377C21.3521 7.57877 21.5834 7.61129 21.7896 7.5275L25.4709 6.13877L28.3384 11.1C28.3647 11.1488 28.3597 11.2038 28.3297 11.2275L25.2959 13.5988C25.1234 13.7338 25.0334 13.95 25.0609 14.1687C25.1084 14.5487 25.1572 15.005 25.1572 15.5C25.1572 15.9962 25.1084 16.4513 25.0609 16.8312C25.0334 17.0487 25.1234 17.2663 25.2959 17.4012L28.3259 19.7712C28.3583 19.7975 28.3646 19.8538 28.3446 19.8887Z" fill="white"/>
<path d="M15.001 9.25C11.5547 9.25 8.75098 12.0538 8.75098 15.5C8.75098 18.9463 11.5547 21.75 15.001 21.75C18.4472 21.75 21.251 18.9463 21.251 15.5C21.251 12.0538 18.4472 9.25 15.001 9.25ZM15.001 20.5C12.2435 20.5 10.001 18.2575 10.001 15.5C10.001 12.7425 12.2435 10.5 15.001 10.5C17.7585 10.5 20.001 12.7425 20.001 15.5C20.001 18.2575 17.7585 20.5 15.001 20.5Z" fill="white"/>
</g>
<defs>
<clipPath id="clip0">
<rect width="30" height="30" fill="white" transform="translate(0 0.5)"/>
</clipPath>
</defs>
</svg>
