<svg width="60" height="62" viewBox="0 0 60 62" fill="none" xmlns="http://www.w3.org/2000/svg">
<path d="M30 16.7812C29.7099 16.7812 29.4317 16.8965 29.2266 17.1016C29.0215 17.3067 28.9062 17.5849 28.9062 17.875V25.5312H32.1875C32.5595 25.5361 32.9285 25.5988 33.2812 25.7172V17.875C33.2812 17.5849 33.166 17.3067 32.9609 17.1016C32.7558 16.8965 32.4776 16.7812 32.1875 16.7812H30Z" fill="rgb(108, 117, 125)"/>
<path d="M23.4375 16.7812C23.1474 16.7812 22.8692 16.8965 22.6641 17.1016C22.459 17.3067 22.3438 17.5849 22.3438 17.875V25.5312H26.7188V17.875C26.7188 17.5849 26.6035 17.3067 26.3984 17.1016C26.1933 16.8965 25.9151 16.7812 25.625 16.7812H23.4375Z" fill="rgb(108, 117, 125)"/>
<path d="M45.3125 16.7812H43.125C42.521 16.7812 42.0313 17.2709 42.0313 17.875V28.8125C42.0313 29.4166 42.521 29.9062 43.125 29.9062H45.3125C45.9166 29.9062 46.4063 29.4166 46.4063 28.8125V17.875C46.4063 17.2709 45.9166 16.7812 45.3125 16.7812Z" fill="rgb(108, 117, 125)"/>
<path d="M13.9002 17.5687C14.2179 18.0143 14.503 18.4822 14.7533 18.9688H18.0674C18.9185 17.1075 20.1936 15.4715 21.7906 14.1916C23.3876 12.9117 25.2621 12.0236 27.2641 11.5983C29.266 11.1731 31.3397 11.2225 33.319 11.7427C35.2984 12.2628 37.1285 13.2392 38.6627 14.5938H38.7502C39.5602 14.5959 40.3402 14.9001 40.9377 15.4469C41.5352 14.9001 42.3153 14.5959 43.1252 14.5938H45.3127C45.7328 14.5932 46.149 14.675 46.5377 14.8344L49.5018 9.90156L44.5361 4.93594L39.2096 8.12969C38.7884 8.37757 38.3092 8.50964 37.8205 8.5125C37.4369 8.51235 37.0574 8.43421 36.7049 8.28281C36.683 8.28281 36.6721 8.27187 36.6502 8.26094C36.2506 8.09928 35.8948 7.84567 35.6117 7.5207C35.3285 7.19573 35.126 6.80856 35.0205 6.39062L33.5221 0.375H26.4783L24.9799 6.39062C24.8744 6.80856 24.6719 7.19573 24.3888 7.5207C24.1056 7.84567 23.7498 8.09928 23.3502 8.26094C23.3283 8.27187 23.3174 8.28281 23.2955 8.28281C22.8974 8.45637 22.4637 8.53299 22.0302 8.50637C21.5967 8.47976 21.1757 8.35066 20.8018 8.12969L15.4643 4.93594L10.4986 9.90156L13.6924 15.2281C13.8955 15.5796 14.0193 15.9711 14.0552 16.3755C14.0911 16.7798 14.0382 17.187 13.9002 17.5687Z" fill="rgb(108, 117, 125)"/>
<path d="M38.75 16.7812H36.5625C35.9584 16.7812 35.4688 17.2709 35.4688 17.875V28.8125C35.4688 29.4166 35.9584 29.9062 36.5625 29.9062H38.75C39.3541 29.9062 39.8438 29.4166 39.8438 28.8125V17.875C39.8438 17.2709 39.3541 16.7812 38.75 16.7812Z" fill="rgb(108, 117, 125)"/>
<path d="M4.84386 28.8125H0.578232C2.01173 30.2117 3.93447 30.9965 5.93761 31C7.70188 30.998 9.41069 30.3833 10.772 29.261C11.2172 28.6137 11.7469 28.0289 12.347 27.5219C12.6181 27.1075 12.8489 26.6679 13.036 26.2094C13.1152 26.0077 13.2539 25.8348 13.4336 25.7137C13.6133 25.5926 13.8256 25.5289 14.0423 25.5313H20.1564V21.1563H14.0423C13.8232 21.1565 13.6092 21.0909 13.4278 20.9681C13.2464 20.8452 13.1062 20.6707 13.0251 20.4672C12.4583 19.0523 11.4797 17.8402 10.216 16.988C8.95231 16.1358 7.4618 15.6827 5.93761 15.6875C3.93447 15.6911 2.01173 16.4759 0.578232 17.875H4.84386C5.13394 17.875 5.41214 17.9903 5.61725 18.1954C5.82237 18.4005 5.93761 18.6787 5.93761 18.9688V27.7188C5.93761 28.0089 5.82237 28.2871 5.61725 28.4922C5.41214 28.6973 5.13394 28.8125 4.84386 28.8125Z" fill="rgb(108, 117, 125)"/>
<path d="M49.2719 30.8796C49.0312 30.464 48.7578 30.0484 48.4734 29.6437C48.2916 30.3441 47.8827 30.9644 47.3108 31.4077C46.7388 31.851 46.0361 32.0922 45.3125 32.0937H43.125C42.315 32.0916 41.535 31.7874 40.9375 31.2406C40.34 31.7874 39.5599 32.0916 38.75 32.0937H36.5516C35.9733 32.0908 35.4066 31.9322 34.9109 31.6343C34.3495 33.0594 33.3722 34.2825 32.1062 35.1447C30.8403 36.0069 29.3442 36.4682 27.8125 36.4687H27.6047C29.3305 37.7462 30.5536 39.5885 31.0609 41.6749C31.5421 43.6402 31.5421 45.6925 31.0609 47.6577L28.9391 47.1546C29.333 45.5265 29.333 43.828 28.9391 42.1999C28.2062 39.2468 26.2484 38.0546 23.9844 36.6765L23.6453 36.4687H20.1562V34.2812H27.8125C29.2629 34.2812 30.6539 33.705 31.6795 32.6794C32.7051 31.6538 33.2812 30.2628 33.2812 28.8124C33.2873 28.6672 33.2631 28.5223 33.2103 28.3868C33.1574 28.2514 33.0771 28.1284 32.9743 28.0256C32.8715 27.9228 32.7485 27.8425 32.6131 27.7897C32.4777 27.7368 32.3327 27.7127 32.1875 27.7187H16.9516C15.4207 27.9678 14.0262 28.7475 13.0124 29.9213C11.9986 31.0951 11.43 32.5882 11.4062 34.139L13.5609 42.7687C14.5562 46.2577 17.5094 49.3968 18.7344 50.589C18.9436 50.7978 19.0615 51.0809 19.0625 51.3765V60.5312C19.0625 60.8213 19.1777 61.0995 19.3829 61.3046C19.588 61.5097 19.8662 61.6249 20.1562 61.6249H39.8437C40.1338 61.6249 40.412 61.5097 40.6171 61.3046C40.8223 61.0995 40.9375 60.8213 40.9375 60.5312V51.6937C40.9363 51.5382 40.969 51.3843 41.0332 51.2426C41.0974 51.101 41.1916 50.975 41.3094 50.8734C44.2114 48.5381 46.3484 45.3879 47.4453 41.8281L49.2719 30.8796Z" fill="rgb(108, 117, 125)"/>
<path d="M48.5938 26.625C49.7561 27.5916 50.7025 28.7914 51.3719 30.1468C51.4382 30.2725 51.4791 30.41 51.4922 30.5515C52.3163 30.8497 53.1862 31.0014 54.0625 31C56.0657 30.9964 57.9884 30.2116 59.4219 28.8125H55.1563C54.8662 28.8125 54.588 28.6972 54.3829 28.4921C54.1777 28.287 54.0625 28.0088 54.0625 27.7187V18.9687C54.0625 18.6786 54.1777 18.4004 54.3829 18.1953C54.588 17.9902 54.8662 17.875 55.1563 17.875H59.4219C58.7039 17.1697 57.8535 16.6134 56.9196 16.2381C55.9858 15.8628 54.9869 15.6759 53.9805 15.6881C52.9742 15.7003 51.9801 15.9114 51.0556 16.3092C50.1312 16.707 49.2945 17.2838 48.5938 18.0062V26.625Z" fill="rgb(108, 117, 125)"/>
</svg>
