<svg width="42" height="42" viewBox="0 0 42 42" fill="none" xmlns="http://www.w3.org/2000/svg">
<circle cx="21" cy="21" r="16" fill="#242323"/>
<g opacity="0.8" filter="url(#filter0_f)">
<circle cx="21" cy="21" r="6" fill="white"/>
</g>
<path d="M27.9925 17.0062C27.0817 17.0062 26.2413 16.7032 25.5665 16.1921C24.7925 15.6062 24.2364 14.7468 24.04 13.7562C23.9914 13.5114 23.9652 13.2588 23.9627 13H21.3609V20.1385L21.3578 24.0486C21.3578 25.094 20.6798 25.9803 19.74 26.2921C19.4673 26.3825 19.1727 26.4254 18.866 26.4085C18.4745 26.3869 18.1076 26.2683 17.7887 26.0767C17.1101 25.6692 16.6501 24.93 16.6376 24.0843C16.618 22.7626 17.6821 21.685 18.9975 21.685C19.2572 21.685 19.5065 21.7275 19.74 21.8048V19.8537V19.1523C19.4938 19.1157 19.2432 19.0966 18.9897 19.0966C17.55 19.0966 16.2034 19.6975 15.2408 20.7801C14.5133 21.5983 14.0769 22.6421 14.0096 23.7366C13.9214 25.1744 14.4453 26.5412 15.4615 27.5496C15.6108 27.6977 15.7676 27.8351 15.9316 27.9618C16.8028 28.6351 17.8679 29 18.9897 29C19.2432 29 19.4938 28.9812 19.74 28.9446C20.788 28.7887 21.7549 28.3071 22.518 27.5496C23.4556 26.6191 23.9736 25.3838 23.9792 24.069L23.9658 18.2299C24.4131 18.5764 24.9022 18.8631 25.4271 19.0856C26.2435 19.4315 27.1091 19.6068 28 19.6064V17.7095V17.0056C28.0006 17.0062 27.9931 17.0062 27.9925 17.0062Z" fill="white"/>
<defs>
<filter id="filter0_f" x="0" y="0" width="42" height="42" filterUnits="userSpaceOnUse" color-interpolation-filters="sRGB">
<feFlood flood-opacity="0" result="BackgroundImageFix"/>
<feBlend mode="normal" in="SourceGraphic" in2="BackgroundImageFix" result="shape"/>
<feGaussianBlur stdDeviation="7.5" result="effect1_foregroundBlur"/>
</filter>
</defs>
</svg>
