<svg width="30" height="30" viewBox="0 0 30 30" fill="none" xmlns="http://www.w3.org/2000/svg">
<path d="M23.75 6.25H21.25V3.75H8.75V6.25H6.25C4.875 6.25 3.75 7.375 3.75 8.75V10C3.75 13.1875 6.15 15.7875 9.2375 16.175C10.025 18.05 11.7125 19.4625 13.75 19.875V23.75H8.75V26.25H21.25V23.75H16.25V19.875C18.2875 19.4625 19.975 18.05 20.7625 16.175C23.85 15.7875 26.25 13.1875 26.25 10V8.75C26.25 7.375 25.125 6.25 23.75 6.25ZM6.25 10V8.75H8.75V13.525C7.3 13 6.25 11.625 6.25 10ZM23.75 10C23.75 11.625 22.7 13 21.25 13.525V8.75H23.75V10Z" fill="#FCC02A"/>
</svg>
