<svg width="54" height="54" viewBox="0 0 54 54" fill="none" xmlns="http://www.w3.org/2000/svg">
<path d="M47.4167 6.58333H41.5833V0.75H12.4167V6.58333H6.58333C3.375 6.58333 0.75 9.20833 0.75 12.4167V15.3333C0.75 22.7708 6.35 28.8375 13.5542 29.7417C15.3917 34.1167 19.3292 37.4125 24.0833 38.375V47.4167H12.4167V53.25H41.5833V47.4167H29.9167V38.375C34.6708 37.4125 38.6083 34.1167 40.4458 29.7417C47.65 28.8375 53.25 22.7708 53.25 15.3333V12.4167C53.25 9.20833 50.625 6.58333 47.4167 6.58333ZM6.58333 15.3333V12.4167H12.4167V23.5583C9.03333 22.3333 6.58333 19.125 6.58333 15.3333ZM47.4167 15.3333C47.4167 19.125 44.9667 22.3333 41.5833 23.5583V12.4167H47.4167V15.3333Z" fill="rgb(108, 117, 125)"/>
</svg>
