<svg width="30" height="30" viewBox="0 0 30 30" fill="none" xmlns="http://www.w3.org/2000/svg">
<path d="M24 6.5H21.5V4H9V6.5H6.5C5.125 6.5 4 7.625 4 9V10.25C4 13.4375 6.4 16.0375 9.4875 16.425C10.275 18.3 11.9625 19.7125 14 20.125V24H9V26.5H21.5V24H16.5V20.125C18.5375 19.7125 20.225 18.3 21.0125 16.425C24.1 16.0375 26.5 13.4375 26.5 10.25V9C26.5 7.625 25.375 6.5 24 6.5ZM6.5 10.25V9H9V13.775C7.55 13.25 6.5 11.875 6.5 10.25ZM24 10.25C24 11.875 22.95 13.25 21.5 13.775V9H24V10.25Z" fill="#C0C0C0"/>
</svg>
