<svg width="45" height="45" viewBox="0 0 45 45" fill="none" xmlns="http://www.w3.org/2000/svg">
<g filter="url(#filter0_d)">
<circle cx="22" cy="22" r="16" fill="#55ACE3"/>
</g>
<g opacity="0.8" filter="url(#filter1_f)">
<circle cx="22.5" cy="22.5" r="7.5" fill="white"/>
</g>
<path d="M31 16.7051C30.3571 16.9744 29.6225 17.1538 28.8878 17.2436C29.6225 16.7949 30.2653 16.0769 30.5408 15.2692C29.8061 15.718 29.0714 15.9872 28.1531 16.1667C27.5102 15.4487 26.5 15 25.4898 15C23.4694 15 21.8163 16.6154 21.8163 18.5897C21.8163 18.859 21.8163 19.1282 21.9082 19.3974C18.8776 19.2179 16.1224 17.782 14.2857 15.6282C14.0102 16.1667 13.8265 16.7949 13.8265 17.4231C13.8265 18.6795 14.4694 19.7564 15.4796 20.3846C14.8367 20.3846 14.2857 20.2051 13.8265 19.9359C13.8265 21.641 15.1122 23.1667 16.7653 23.4359C16.4898 23.5256 16.1225 23.5256 15.7551 23.5256C15.4796 23.5256 15.2959 23.5256 15.0204 23.4359C15.4796 24.8718 16.8571 25.9487 18.5102 25.9487C17.2245 26.9359 15.6633 27.4743 13.9184 27.4743C13.6429 27.4743 13.3673 27.4744 13 27.3846C14.6531 28.3718 16.5816 29 18.6939 29C25.4898 29 29.1633 23.5256 29.1633 18.7692V18.3205C29.898 18.0513 30.5408 17.4231 31 16.7051Z" fill="white"/>
<defs>
<filter id="filter0_d" x="5" y="5" width="34" height="34" filterUnits="userSpaceOnUse" color-interpolation-filters="sRGB">
<feFlood flood-opacity="0" result="BackgroundImageFix"/>
<feColorMatrix in="SourceAlpha" type="matrix" values="0 0 0 0 0 0 0 0 0 0 0 0 0 0 0 0 0 0 127 0"/>
<feMorphology radius="1" operator="erode" in="SourceAlpha" result="effect1_dropShadow"/>
<feOffset/>
<feGaussianBlur stdDeviation="1"/>
<feColorMatrix type="matrix" values="0 0 0 0 1 0 0 0 0 1 0 0 0 0 1 0 0 0 1 0"/>
<feBlend mode="normal" in2="BackgroundImageFix" result="effect1_dropShadow"/>
<feBlend mode="normal" in="SourceGraphic" in2="effect1_dropShadow" result="shape"/>
</filter>
<filter id="filter1_f" x="0" y="0" width="45" height="45" filterUnits="userSpaceOnUse" color-interpolation-filters="sRGB">
<feFlood flood-opacity="0" result="BackgroundImageFix"/>
<feBlend mode="normal" in="SourceGraphic" in2="BackgroundImageFix" result="shape"/>
<feGaussianBlur stdDeviation="7.5" result="effect1_foregroundBlur"/>
</filter>
</defs>
</svg>
