<svg width="34" height="34" viewBox="0 0 34 34" fill="none" xmlns="http://www.w3.org/2000/svg">
<g opacity="0.8">
<rect width="34" height="34" rx="6" fill="#FA5C7C"/>
<path d="M26.5933 12.203C26.3633 11.345 25.6883 10.668 24.8313 10.437C23.2653 10.007 17.0003 10 17.0003 10C17.0003 10 10.7363 9.993 9.16933 10.404C8.32933 10.633 7.63533 11.325 7.40333 12.182C6.99033 13.748 6.98633 16.996 6.98633 16.996C6.98633 16.996 6.98233 20.26 7.39233 21.81C7.62233 22.667 8.29733 23.344 9.15533 23.575C10.7373 24.005 16.9853 24.012 16.9853 24.012C16.9853 24.012 23.2503 24.019 24.8163 23.609C25.6723 23.379 26.3503 22.703 26.5833 21.846C26.9973 20.281 27.0003 17.034 27.0003 17.034C27.0003 17.034 27.0203 13.769 26.5933 12.203ZM14.9963 20.005L15.0013 14.005L20.2083 17.01L14.9963 20.005Z" fill="white"/>
</g>
</svg>
