<svg width="20" height="21" viewBox="0 0 20 21" fill="none" xmlns="http://www.w3.org/2000/svg">
<path fill-rule="evenodd" clip-rule="evenodd" d="M13.9993 10.5C13.9993 12.7091 12.2084 14.5 9.99927 14.5C7.79013 14.5 5.99927 12.7091 5.99927 10.5C5.99927 8.29086 7.79013 6.5 9.99927 6.5C12.2084 6.5 13.9993 8.29086 13.9993 10.5ZM11.9993 10.5C11.9993 11.6046 11.1038 12.5 9.99927 12.5C8.8947 12.5 7.99927 11.6046 7.99927 10.5C7.99927 9.39543 8.8947 8.5 9.99927 8.5C11.1038 8.5 11.9993 9.39543 11.9993 10.5Z" fill="#7876F2"/>
<path fill-rule="evenodd" clip-rule="evenodd" d="M0.428934 7.07627L2.24904 3.92375C2.48401 3.51677 2.97066 3.32831 3.41845 3.47089L5.25541 4.05576C5.50053 3.87551 5.75486 3.71016 6.01693 3.56011C6.26657 3.41655 6.5247 3.28606 6.79036 3.1696L7.20233 1.2863C7.30276 0.82722 7.70929 0.5 8.17923 0.5H11.8194C12.2894 0.5 12.6959 0.82722 12.7963 1.2863L13.2083 3.1696C13.4902 3.29318 13.7636 3.43254 14.0274 3.58657C14.2733 3.72954 14.5123 3.88604 14.7431 4.05576L16.58 3.47089C17.0278 3.32831 17.5145 3.51678 17.7494 3.92375L19.5695 7.07627C19.8045 7.48325 19.7244 7.99893 19.377 8.31544L17.952 9.61387C17.9847 9.90883 18.0008 10.2043 18.0006 10.4989C18.0009 10.7942 17.9848 11.0904 17.952 11.3862L19.377 12.6846C19.7244 13.0011 19.8045 13.5168 19.5695 13.9238L17.7494 17.0763C17.5145 17.4832 17.0278 17.6717 16.58 17.5291L14.7431 16.9443C14.5094 17.1161 14.2675 17.2743 14.0184 17.4187C13.7574 17.5706 13.487 17.7082 13.2083 17.8304L12.7963 19.7137C12.6959 20.1728 12.2894 20.5 11.8194 20.5H8.17923C7.70929 20.5 7.30276 20.1728 7.20233 19.7137L6.79036 17.8304C6.52779 17.7153 6.27258 17.5865 6.02564 17.4449C5.7605 17.2935 5.50325 17.1265 5.25541 16.9443L3.41845 17.5291C2.97066 17.6717 2.48401 17.4832 2.24904 17.0763L0.428933 13.9238C0.193963 13.5168 0.274076 13.0011 0.621441 12.6846L2.04644 11.3862C2.01368 11.0908 1.99763 10.795 1.99791 10.5C1.99763 10.205 2.01369 9.90919 2.04644 9.61386L0.621443 8.31544C0.274077 7.99893 0.193964 7.48324 0.428934 7.07627ZM11.0145 2.5L11.4722 4.59226L12.4053 5.00132C12.6163 5.09382 12.8211 5.19821 13.0189 5.3137L13.0221 5.31557C13.2065 5.42275 13.3855 5.54 13.5583 5.66703L14.379 6.27058L16.4198 5.62082L17.435 7.37921L15.8519 8.8217L15.9642 9.8343C15.9887 10.0551 16.0007 10.2764 16.0006 10.4973L16.0006 10.501C16.0008 10.7225 15.9888 10.9444 15.9642 11.1657L15.8519 12.1783L17.435 13.6208L16.4198 15.3792L14.379 14.7294L13.5582 15.333C13.3834 15.4616 13.2021 15.5801 13.0154 15.6884L13.0122 15.6902C12.8165 15.8042 12.6139 15.9072 12.4053 15.9987L11.4722 16.4077L11.0145 18.5H8.98413L8.52645 16.4077L7.59337 15.9987C7.39681 15.9125 7.20564 15.816 7.02052 15.7099L7.01725 15.708C6.81845 15.5945 6.62574 15.4694 6.44023 15.333L5.61944 14.7294L3.57864 15.3792L2.56343 13.6208L4.14654 12.1783L4.03425 11.1657C4.00974 10.9446 3.9977 10.723 3.99791 10.5019L3.99791 10.4981C3.9977 10.277 4.00974 10.0554 4.03425 9.8343L4.14655 8.8217L2.56343 7.37921L3.57864 5.62081L5.61944 6.27058L6.44023 5.66703C6.62371 5.53211 6.81423 5.40824 7.01072 5.29574L7.01398 5.29386C7.20114 5.18623 7.3945 5.08849 7.59336 5.00132L8.52645 4.59226L8.98413 2.5H11.0145Z" fill="#7876F2"/>
</svg>
