<svg width="37" height="54" viewBox="0 0 37 54" fill="none" xmlns="http://www.w3.org/2000/svg">
<path fill-rule="evenodd" clip-rule="evenodd" d="M2.68056 43.0674C2.32272 43.0674 2.01526 43.2997 1.94772 43.6211L0.0136646 52.8194C-0.0748439 53.2403 0.277847 53.6308 0.746509 53.6308H36.2535C36.7222 53.6308 37.0748 53.2403 36.9863 52.8194L35.0523 43.6211C34.9847 43.2997 34.6773 43.0674 34.3194 43.0674H2.68056ZM13.2513 46.3711C12.9145 46.3711 12.6254 46.6041 12.5623 46.926L12.0343 49.6241C11.952 50.0448 12.2833 50.4345 12.7233 50.4345H24.387C24.8269 50.4345 25.1583 50.0448 25.076 49.6241L24.548 46.926C24.485 46.6041 24.1957 46.3711 23.859 46.3711H13.2513Z" fill="url(#paint0_linear_940_4362)"/>
<path d="M18.4822 7.97757C18.5967 7.843 18.8167 7.91044 18.8361 8.08609L18.8384 8.10752C18.9219 8.86254 19.5249 9.45473 20.2813 9.52458L21.1551 9.60527L19.6717 9.73472C19.1132 9.78345 18.6094 9.39907 18.5089 8.84754C17.9229 9.45343 17.1447 9.83702 16.3072 9.93276L16.0262 9.96489L16.6087 10.9514C16.8933 11.4335 16.8217 12.0462 16.4335 12.4496C16.3845 12.5006 16.3006 12.4488 16.3241 12.3822L16.3551 12.2944C16.5015 11.8793 16.4285 11.4183 16.161 11.0688L15.4225 10.1037C15.2569 9.88734 15.3948 9.57338 15.6661 9.54893C16.6925 9.45641 17.6417 8.96499 18.3097 8.18023L18.4822 7.97757Z" fill="url(#paint1_linear_940_4362)"/>
<path d="M24.9049 20.0864C25.516 19.8774 26.1637 20.4254 25.9741 20.9963C25.1998 23.3286 23.8432 27.9085 23.8992 31.2221C23.9564 34.6025 25.486 39.372 26.1704 41.3448C26.3255 41.7919 25.9613 42.2533 25.4484 42.2533H10.6649C10.1517 42.2533 9.78742 41.7914 9.94302 41.3441C10.6306 39.3679 12.1671 34.5888 12.213 31.2221C12.2581 27.9177 10.9036 23.3265 10.1332 20.9924C9.94489 20.4219 10.5915 19.8757 11.2018 20.0846C12.9557 20.6847 15.828 21.5328 18.0561 21.5328C20.2819 21.5328 23.1506 20.6865 24.9049 20.0864Z" fill="url(#paint2_linear_940_4362)"/>
<path fill-rule="evenodd" clip-rule="evenodd" d="M18.056 20.3143C24.1894 20.3143 29.1614 15.7668 29.1614 10.1572C29.1614 4.54752 24.1894 0 18.056 0C11.9227 0 6.95068 4.54752 6.95068 10.1572C6.95068 15.7668 11.9227 20.3143 18.056 20.3143ZM18.7635 1.86024C18.7956 1.48443 19.1554 1.20089 19.5627 1.25857C20.5909 1.40423 21.5891 1.69834 22.5193 2.13108C23.4495 2.56389 24.2972 3.12858 25.0315 3.80288C25.3223 4.06996 25.2837 4.50291 24.9704 4.74795L24.5472 5.07906C24.2339 5.32403 23.7651 5.28772 23.4686 5.02596C22.9133 4.53588 22.2804 4.12307 21.5901 3.80192C20.8998 3.48078 20.1623 3.25608 19.4022 3.13417C18.9963 3.06906 18.6881 2.74395 18.7202 2.36814L18.7635 1.86024ZM22.0539 10.1566C22.0539 12.176 20.264 13.8131 18.056 13.8131C15.848 13.8131 14.0581 12.176 14.0581 10.1566C14.0581 8.1371 15.848 6.5 18.056 6.5C20.264 6.5 22.0539 8.1371 22.0539 10.1566Z" fill="url(#paint3_linear_940_4362)"/>
<defs>
<linearGradient id="paint0_linear_940_4362" x1="18.5" y1="43.0674" x2="18.5" y2="53.6308" gradientUnits="userSpaceOnUse">
<stop offset="0.0104167" stop-color="white"/>
<stop offset="0.15625" stop-color="white" stop-opacity="0.89"/>
<stop offset="0.296875" stop-color="white"/>
<stop offset="0.427083" stop-color="white" stop-opacity="0.83"/>
<stop offset="0.625" stop-color="white" stop-opacity="0.99"/>
<stop offset="0.734375" stop-color="white"/>
<stop offset="0.859375" stop-color="white" stop-opacity="0.93"/>
<stop offset="1" stop-color="white" stop-opacity="0.62"/>
</linearGradient>
<linearGradient id="paint1_linear_940_4362" x1="15.4116" y1="9.15885" x2="38.5685" y2="9.7665" gradientUnits="userSpaceOnUse">
<stop stop-color="#EEF2F7"/>
<stop offset="1" stop-color="#EEF2F7" stop-opacity="0"/>
</linearGradient>
<linearGradient id="paint2_linear_940_4362" x1="18.0566" y1="20.0391" x2="18.0566" y2="42.2533" gradientUnits="userSpaceOnUse">
<stop offset="0.0104167" stop-color="white"/>
<stop offset="0.15625" stop-color="white" stop-opacity="0.89"/>
<stop offset="0.296875" stop-color="white"/>
<stop offset="0.427083" stop-color="white" stop-opacity="0.83"/>
<stop offset="0.625" stop-color="white" stop-opacity="0.99"/>
<stop offset="0.734375" stop-color="white"/>
<stop offset="0.859375" stop-color="white" stop-opacity="0.93"/>
<stop offset="1" stop-color="white" stop-opacity="0.62"/>
</linearGradient>
<linearGradient id="paint3_linear_940_4362" x1="18.056" y1="0" x2="18.056" y2="20.3143" gradientUnits="userSpaceOnUse">
<stop offset="0.0104167" stop-color="white"/>
<stop offset="0.15625" stop-color="white" stop-opacity="0.89"/>
<stop offset="0.296875" stop-color="white"/>
<stop offset="0.427083" stop-color="white" stop-opacity="0.83"/>
<stop offset="0.625" stop-color="white" stop-opacity="0.99"/>
<stop offset="0.734375" stop-color="white"/>
<stop offset="0.859375" stop-color="white" stop-opacity="0.93"/>
<stop offset="1" stop-color="white" stop-opacity="0.62"/>
</linearGradient>
</defs>
</svg>
