<svg width="142" height="225" viewBox="0 0 142 225" fill="none" xmlns="http://www.w3.org/2000/svg">
<path fill-rule="evenodd" clip-rule="evenodd" d="M10.2571 180.175C8.88783 180.175 7.71132 181.147 7.45288 182.492L0.0522871 220.975C-0.286388 222.736 1.06317 224.369 2.8565 224.369H138.723C140.516 224.369 141.866 222.736 141.527 220.975L134.127 182.492C133.868 181.147 132.692 180.175 131.322 180.175H10.2571ZM50.7049 194C49.4162 194 48.3098 194.975 48.0685 196.322L46.0483 207.61C45.7332 209.37 47.0009 211 48.6844 211H93.3153C94.9988 211 96.2668 209.37 95.9518 207.61L93.9312 196.322C93.6902 194.975 92.5835 194 91.2951 194H50.7049Z" fill="url(#paint0_linear_2158_29242)"/>
<path d="M71.5056 32.3675C71.6402 32.1945 71.9171 32.2742 71.9391 32.4923L72.4807 37.849C72.5688 38.7205 73.258 39.4096 74.1295 39.4976L80.9483 40.186L73.8043 40.8676C72.5071 40.9914 71.3351 40.0906 71.1209 38.8053L70.8226 37.0159L68.9377 39.1467C67.9173 40.3002 66.5112 41.0419 64.9831 41.2329L61.3226 41.6905L63.8689 46.4058C64.7855 48.1031 64.5479 50.1917 63.2735 51.6398L62.8495 52.1216C62.6753 52.3196 62.3548 52.1374 62.4358 51.8865L62.9162 50.3971C63.2707 49.2984 63.09 48.0971 62.4279 47.1513L58.0294 40.8669C57.8162 40.5624 58.0099 40.1409 58.3799 40.1045L63.7096 39.5792C65.2181 39.4306 66.5995 38.6692 67.5307 37.4731L71.5056 32.3675Z" fill="url(#paint1_linear_2158_29242)"/>
<path fill-rule="evenodd" clip-rule="evenodd" d="M95.2963 84.0364C97.6348 83.162 100.113 85.4545 99.3876 87.8432C96.4246 97.6005 91.2337 116.761 91.4481 130.625C91.6668 144.767 97.5197 164.721 100.139 172.975C100.732 174.845 99.3384 176.776 97.3758 176.776H40.8073C38.8435 176.776 37.4497 174.843 38.0451 172.972C40.676 164.704 46.5554 144.71 46.7313 130.625C46.9038 116.8 41.7205 97.592 38.7727 87.8267C38.0522 85.4399 40.5266 83.1549 42.8619 84.0287C49.5729 86.5396 60.5638 90.0877 69.0896 90.0877C77.6067 90.0877 88.5834 86.5471 95.2963 84.0364ZM46.8022 90.262C47.7089 89.6312 48.9553 89.8549 49.5861 90.7617C57.6414 102.341 66.011 134.396 49.7855 172.642C49.3541 173.659 48.1801 174.133 47.1632 173.702C46.1464 173.271 45.6718 172.097 46.1032 171.08C61.8605 133.938 53.4773 103.36 46.3025 93.046C45.6717 92.1392 45.8955 90.8928 46.8022 90.262ZM92.9697 93.046C93.6005 92.1392 93.3768 90.8928 92.4701 90.262C91.5633 89.6312 90.3169 89.8549 89.6861 90.7617C81.6308 102.341 73.2612 134.396 89.4867 172.642C89.9181 173.659 91.0922 174.133 92.109 173.702C93.1259 173.271 93.6005 172.097 93.1691 171.08C77.4118 133.938 85.7949 103.36 92.9697 93.046Z" fill="url(#paint2_linear_2158_29242)"/>
<path fill-rule="evenodd" clip-rule="evenodd" d="M69.09 84.9886C92.559 84.9886 111.584 65.9633 111.584 42.4943C111.584 19.0253 92.559 0 69.09 0C45.6211 0 26.5957 19.0253 26.5957 42.4943C26.5957 65.9633 45.6211 84.9886 69.09 84.9886ZM71.7975 7.78358C71.9203 6.21128 73.2969 5.02506 74.8555 5.26636C78.79 5.87574 82.6094 7.10623 86.1689 8.91668C89.7284 10.7274 92.9721 13.0899 95.7817 15.9109C96.8945 17.0283 96.7466 18.8396 95.5481 19.8648L93.9284 21.2501C92.7299 22.2749 90.936 22.123 89.8012 21.0279C87.6764 18.9776 85.2548 17.2505 82.6134 15.9069C79.9719 14.5634 77.15 13.6233 74.2416 13.1133C72.6881 12.8409 71.509 11.4807 71.6318 9.90843L71.7975 7.78358ZM84.3883 42.4932C84.3883 50.942 77.5392 57.7911 69.0904 57.7911C60.6416 57.7911 53.7925 50.942 53.7925 42.4932C53.7925 34.0444 60.6416 27.1953 69.0904 27.1953C77.5392 27.1953 84.3883 34.0444 84.3883 42.4932Z" fill="url(#paint3_linear_2158_29242)"/>
<defs>
<linearGradient id="paint0_linear_2158_29242" x1="70.7897" y1="180.175" x2="70.7897" y2="224.369" gradientUnits="userSpaceOnUse">
<stop offset="0.0104167" stop-color="white"/>
<stop offset="0.15625" stop-color="white" stop-opacity="0.89"/>
<stop offset="0.296875" stop-color="white"/>
<stop offset="0.427083" stop-color="white" stop-opacity="0.83"/>
<stop offset="0.625" stop-color="white" stop-opacity="0.99"/>
<stop offset="0.734375" stop-color="white"/>
<stop offset="0.859375" stop-color="white" stop-opacity="0.93"/>
<stop offset="1" stop-color="white" stop-opacity="0.62"/>
</linearGradient>
<linearGradient id="paint1_linear_2158_29242" x1="58.9706" y1="38.3183" x2="147.59" y2="40.4452" gradientUnits="userSpaceOnUse">
<stop stop-color="#EEF2F7"/>
<stop offset="1" stop-color="#EEF2F7" stop-opacity="0"/>
</linearGradient>
<linearGradient id="paint2_linear_2158_29242" x1="69.0915" y1="83.8384" x2="69.0915" y2="176.776" gradientUnits="userSpaceOnUse">
<stop offset="0.0104167" stop-color="white"/>
<stop offset="0.15625" stop-color="white" stop-opacity="0.89"/>
<stop offset="0.296875" stop-color="white"/>
<stop offset="0.427083" stop-color="white" stop-opacity="0.83"/>
<stop offset="0.625" stop-color="white" stop-opacity="0.99"/>
<stop offset="0.734375" stop-color="white"/>
<stop offset="0.859375" stop-color="white" stop-opacity="0.93"/>
<stop offset="1" stop-color="white" stop-opacity="0.62"/>
</linearGradient>
<linearGradient id="paint3_linear_2158_29242" x1="69.09" y1="0" x2="69.09" y2="84.9886" gradientUnits="userSpaceOnUse">
<stop offset="0.0104167" stop-color="white"/>
<stop offset="0.15625" stop-color="white" stop-opacity="0.89"/>
<stop offset="0.296875" stop-color="white"/>
<stop offset="0.427083" stop-color="white" stop-opacity="0.83"/>
<stop offset="0.625" stop-color="white" stop-opacity="0.99"/>
<stop offset="0.734375" stop-color="white"/>
<stop offset="0.859375" stop-color="white" stop-opacity="0.93"/>
<stop offset="1" stop-color="white" stop-opacity="0.62"/>
</linearGradient>
</defs>
</svg>
