<svg width="178" height="50" viewBox="0 0 178 50" fill="none" xmlns="http://www.w3.org/2000/svg">
<g clip-path="url(#clip0)">
<path d="M17.0304 41.0562C16.7661 41.0562 16.5484 40.9706 16.3774 40.7996C16.2064 40.6286 16.1208 40.4109 16.1208 40.1466L16.1208 23.7521C16.1208 23.4878 16.2064 23.2701 16.3774 23.0991C16.5484 22.9281 16.7661 22.8425 17.0304 22.8425H21.6945C22.845 22.8425 23.8634 23.0991 24.7496 23.6121C25.6358 24.1096 26.3276 24.8015 26.8251 25.6877C27.3226 26.5739 27.5714 27.6 27.5714 28.766C27.5714 29.901 27.3226 30.9116 26.8251 31.7978C26.3276 32.6684 25.6358 33.3603 24.7496 33.8733C23.8634 34.3708 22.845 34.6196 21.6945 34.6196H17.9399L17.9399 40.1466C17.9399 40.4109 17.8544 40.6286 17.6833 40.7996C17.5123 40.9706 17.2947 41.0562 17.0304 41.0562ZM17.9399 32.8705H21.6945C22.4874 32.8705 23.1948 32.6995 23.8167 32.3575C24.4386 31.9999 24.9206 31.5101 25.2626 30.8882C25.6202 30.2664 25.799 29.559 25.799 28.766C25.799 27.942 25.6202 27.2191 25.2626 26.5972C24.9206 25.9753 24.4386 25.4856 23.8167 25.128C23.1948 24.7704 22.4874 24.5916 21.6945 24.5916H17.9399V32.8705ZM35.4952 41.1728C34.2359 41.1728 33.1165 40.9007 32.137 40.3565C31.1731 39.7968 30.4113 39.0272 29.8516 38.0478C29.3074 37.0683 29.0353 35.9489 29.0353 34.6896C29.0353 33.4147 29.2919 32.2953 29.8049 31.3313C30.3335 30.3519 31.0565 29.5823 31.9738 29.0226C32.891 28.4629 33.9483 28.183 35.1454 28.183C36.327 28.183 37.3531 28.4551 38.2238 28.9993C39.11 29.5279 39.794 30.2664 40.276 31.2147C40.758 32.1631 40.9989 33.2437 40.9989 34.4563C40.9989 34.7051 40.9212 34.9072 40.7657 35.0627C40.6103 35.2026 40.4081 35.2726 40.1594 35.2726L30.7378 35.2726C30.831 36.1121 31.0876 36.8584 31.5073 37.5114C31.9271 38.1488 32.479 38.6541 33.1631 39.0272C33.8472 39.3848 34.6246 39.5636 35.4952 39.5636C36.0549 39.5636 36.6146 39.4703 37.1743 39.2838C37.7496 39.0817 38.2082 38.8329 38.5502 38.5375C38.7213 38.3976 38.9156 38.3276 39.1333 38.3276C39.3509 38.3121 39.5375 38.3665 39.693 38.4909C39.8951 38.6774 39.9961 38.8795 39.9961 39.0972C40.0117 39.3149 39.9262 39.5014 39.7396 39.6569C39.2266 40.0922 38.5736 40.4576 37.7807 40.753C36.9878 41.0328 36.2259 41.1728 35.4952 41.1728ZM35.1454 29.7922C33.9483 29.7922 32.961 30.1653 32.1836 30.9116C31.4063 31.6423 30.9399 32.5984 30.7844 33.78L39.3198 33.78C39.1955 32.5984 38.7601 31.6423 38.0139 30.9116C37.2831 30.1653 36.327 29.7922 35.1454 29.7922ZM44.9229 41.0562C44.3321 41.0562 44.0367 40.7608 44.0367 40.17V29.1858C44.0367 28.595 44.3321 28.2996 44.9229 28.2996C45.5137 28.2996 45.8091 28.595 45.8091 29.1858V30.1886C46.2755 29.5667 46.8507 29.077 47.5348 28.7194C48.2189 28.3463 48.9729 28.1597 49.7969 28.1597C50.5121 28.1597 51.064 28.2608 51.4527 28.4629C51.8414 28.665 51.9891 28.9604 51.8958 29.3491C51.8181 29.7067 51.6315 29.8932 51.3361 29.9088C51.0563 29.9088 50.722 29.8932 50.3333 29.8621C49.4627 29.7844 48.6853 29.8777 48.0012 30.142C47.3327 30.3907 46.7963 30.7794 46.3921 31.308C46.0034 31.8366 45.8091 32.4663 45.8091 33.197V40.17C45.8091 40.7608 45.5137 41.0562 44.9229 41.0562ZM56.3036 41.0562C56.0704 41.0562 55.8683 40.9784 55.6973 40.8229C55.5263 40.6519 55.4408 40.4265 55.4408 40.1466V30.3285H53.9482C53.6995 30.3285 53.4974 30.2586 53.3419 30.1187C53.202 29.9632 53.132 29.7766 53.132 29.559C53.132 29.3257 53.202 29.1392 53.3419 28.9993C53.4974 28.8438 53.6995 28.766 53.9482 28.766H55.4408V28.323C55.4408 26.6905 55.8605 25.369 56.7001 24.3584C57.5396 23.3478 58.7523 22.8425 60.3381 22.8425C60.6025 22.8425 60.8201 22.9203 60.9911 23.0758C61.1622 23.2312 61.2477 23.4256 61.2477 23.6588C61.2477 23.892 61.1622 24.0863 60.9911 24.2418C60.8201 24.3973 60.6025 24.475 60.3381 24.475C59.2809 24.475 58.4958 24.8326 57.9827 25.5478C57.4852 26.2474 57.2365 27.1414 57.2365 28.2297V28.766H60.035C60.2837 28.766 60.4781 28.8438 60.618 28.9993C60.7735 29.1392 60.8512 29.3257 60.8512 29.559C60.8512 29.7766 60.7735 29.9632 60.618 30.1187C60.4781 30.2586 60.2837 30.3285 60.035 30.3285H57.2365V40.1466C57.2365 40.4265 57.151 40.6519 56.9799 40.8229C56.8245 40.9784 56.599 41.0562 56.3036 41.0562ZM68.6096 41.1728C67.3658 41.1728 66.2542 40.8929 65.2747 40.3332C64.2952 39.7735 63.5256 39.0039 62.9659 38.0244C62.4062 37.045 62.1264 35.9333 62.1264 34.6896C62.1264 33.4302 62.4062 32.3108 62.9659 31.3313C63.5256 30.3519 64.2952 29.5823 65.2747 29.0226C66.2542 28.4629 67.3658 28.183 68.6096 28.183C69.8534 28.183 70.9572 28.4629 71.9212 29.0226C72.9006 29.5823 73.6702 30.3519 74.2299 31.3313C74.7896 32.3108 75.0772 33.4302 75.0928 34.6896C75.0928 35.9333 74.8052 37.045 74.2299 38.0244C73.6702 39.0039 72.9006 39.7735 71.9212 40.3332C70.9572 40.8929 69.8534 41.1728 68.6096 41.1728ZM68.6096 39.5403C69.5113 39.5403 70.3198 39.3304 71.035 38.9106C71.7501 38.4909 72.3098 37.9156 72.7141 37.1849C73.1183 36.4542 73.3204 35.6224 73.3204 34.6896C73.3204 33.7567 73.1183 32.9249 72.7141 32.1942C72.3098 31.4479 71.7501 30.8649 71.035 30.4452C70.3198 30.0254 69.5113 29.8155 68.6096 29.8155C67.7078 29.8155 66.8994 30.0254 66.1842 30.4452C65.469 30.8649 64.9016 31.4479 64.4818 32.1942C64.0776 32.9249 63.8755 33.7567 63.8755 34.6896C63.8755 35.6224 64.0776 36.4542 64.4818 37.1849C64.9016 37.9156 65.469 38.4909 66.1842 38.9106C66.8994 39.3304 67.7078 39.5403 68.6096 39.5403ZM79.4715 41.0562C78.8807 41.0562 78.5853 40.7608 78.5853 40.17V29.1858C78.5853 28.595 78.8807 28.2996 79.4715 28.2996C80.0623 28.2996 80.3577 28.595 80.3577 29.1858V30.1886C80.8241 29.5667 81.3993 29.077 82.0834 28.7194C82.7675 28.3463 83.5215 28.1597 84.3455 28.1597C85.0607 28.1597 85.6126 28.2608 86.0013 28.4629C86.39 28.665 86.5377 28.9604 86.4444 29.3491C86.3667 29.7067 86.1801 29.8932 85.8847 29.9088C85.6049 29.9088 85.2706 29.8932 84.8819 29.8621C84.0113 29.7844 83.2339 29.8777 82.5498 30.142C81.8813 30.3907 81.3449 30.7794 80.9407 31.308C80.552 31.8366 80.3577 32.4663 80.3577 33.197V40.17C80.3577 40.7608 80.0623 41.0562 79.4715 41.0562ZM90.1759 41.0562C89.8961 41.0562 89.6706 40.9784 89.4996 40.8229C89.3442 40.6519 89.2664 40.4343 89.2664 40.17V29.2091C89.2664 28.9448 89.3442 28.7272 89.4996 28.5562C89.6706 28.3851 89.8961 28.2996 90.1759 28.2996C90.4402 28.2996 90.6501 28.3851 90.8056 28.5562C90.9766 28.7272 91.0621 28.9448 91.0621 29.2091V29.7222C91.4975 29.2247 92.0105 28.8438 92.6013 28.5795C93.1921 28.2996 93.8451 28.1597 94.5603 28.1597C95.4309 28.1597 96.2005 28.354 96.869 28.7427C97.5531 29.1314 98.0973 29.6678 98.5015 30.3519C98.9368 29.6678 99.5198 29.1314 100.251 28.7427C100.981 28.354 101.798 28.1597 102.699 28.1597C103.617 28.1597 104.425 28.3774 105.125 28.8127C105.84 29.248 106.392 29.8621 106.78 30.655C107.185 31.4479 107.387 32.3808 107.387 33.4535V40.17C107.387 40.4343 107.301 40.6519 107.13 40.8229C106.975 40.9784 106.765 41.0562 106.501 41.0562C106.236 41.0562 106.019 40.9784 105.848 40.8229C105.677 40.6519 105.591 40.4343 105.591 40.17V33.4535C105.591 32.3497 105.303 31.479 104.728 30.8416C104.153 30.1886 103.414 29.8621 102.513 29.8621C101.549 29.8621 100.756 30.1886 100.134 30.8416C99.5276 31.479 99.2322 32.3341 99.2478 33.4069V33.4535V40.17C99.2478 40.4343 99.1622 40.6519 98.9912 40.8229C98.8358 40.9784 98.6259 41.0562 98.3616 41.0562C98.0973 41.0562 97.8796 40.9784 97.7086 40.8229C97.5376 40.6519 97.4521 40.4343 97.4521 40.17V33.4535C97.4521 32.3497 97.1644 31.479 96.5892 30.8416C96.0139 30.1886 95.2754 29.8621 94.3737 29.8621C93.4098 29.8621 92.6169 30.1808 91.995 30.8183C91.3731 31.4402 91.0621 32.2564 91.0621 33.267V40.17C91.0621 40.4343 90.9766 40.6519 90.8056 40.8229C90.6501 40.9784 90.4402 41.0562 90.1759 41.0562ZM117.374 41.2894C116.379 41.2894 115.431 41.1339 114.529 40.8229C113.627 40.512 112.842 40.0767 112.174 39.517C111.505 38.9573 111.015 38.3121 110.705 37.5813C110.549 37.2548 110.549 36.9517 110.705 36.6718C110.876 36.392 111.155 36.2132 111.544 36.1354C111.824 36.0733 112.096 36.1199 112.36 36.2754C112.64 36.4153 112.85 36.633 112.99 36.9284C113.177 37.317 113.48 37.6746 113.899 38.0011C114.335 38.3276 114.856 38.5919 115.462 38.794C116.068 38.9961 116.706 39.0972 117.374 39.0972C118.121 39.0972 118.805 38.9806 119.427 38.7474C120.064 38.5142 120.577 38.1799 120.966 37.7446C121.354 37.2937 121.549 36.7418 121.549 36.0888C121.549 35.2648 121.222 34.5263 120.569 33.8733C119.932 33.2203 118.875 32.8161 117.398 32.6606C115.47 32.4741 113.954 31.9066 112.85 30.9582C111.746 30.0098 111.194 28.836 111.194 27.4368C111.194 26.4106 111.482 25.54 112.057 24.8248C112.632 24.1096 113.41 23.5655 114.389 23.1924C115.384 22.8192 116.488 22.6327 117.701 22.6327C119.116 22.6327 120.274 22.9203 121.176 23.4955C122.077 24.0708 122.824 24.8326 123.414 25.781C123.632 26.123 123.718 26.4495 123.671 26.7605C123.64 27.0558 123.492 27.2891 123.228 27.4601C122.932 27.6466 122.614 27.6855 122.272 27.5767C121.93 27.4679 121.673 27.2657 121.502 26.9703C121.113 26.3018 120.608 25.781 119.986 25.4078C119.38 25.0347 118.595 24.8404 117.631 24.8248C116.48 24.8093 115.516 25.0269 114.739 25.4778C113.962 25.9131 113.573 26.5894 113.573 27.5067C113.573 27.9731 113.69 28.424 113.923 28.8593C114.172 29.2791 114.615 29.6445 115.252 29.9554C115.905 30.2664 116.838 30.484 118.051 30.6084C119.901 30.795 121.339 31.3624 122.365 32.3108C123.407 33.2437 123.927 34.4797 123.927 36.0188C123.927 36.905 123.741 37.6746 123.368 38.3276C123.01 38.9806 122.52 39.5325 121.899 39.9834C121.292 40.4187 120.593 40.7452 119.8 40.9629C119.022 41.1805 118.214 41.2894 117.374 41.2894ZM132.054 41.0562C131.277 41.0562 130.577 40.8618 129.955 40.4731C129.333 40.0689 128.844 39.5247 128.486 38.8407C128.129 38.1566 127.95 37.387 127.95 36.5319V30.7716H126.877C126.55 30.7716 126.286 30.6784 126.084 30.4918C125.882 30.3052 125.781 30.072 125.781 29.7922C125.781 29.4812 125.882 29.2325 126.084 29.0459C126.286 28.8593 126.55 28.766 126.877 28.766H127.95V25.4078C127.95 25.0658 128.059 24.786 128.276 24.5683C128.494 24.3506 128.774 24.2418 129.116 24.2418C129.458 24.2418 129.738 24.3506 129.955 24.5683C130.173 24.786 130.282 25.0658 130.282 25.4078V28.766H132.264C132.591 28.766 132.855 28.8593 133.057 29.0459C133.259 29.2325 133.36 29.4812 133.36 29.7922C133.36 30.072 133.259 30.3052 133.057 30.4918C132.855 30.6784 132.591 30.7716 132.264 30.7716H130.282V36.5319C130.282 37.1538 130.453 37.6746 130.795 38.0944C131.137 38.5142 131.557 38.7241 132.054 38.7241H132.847C133.127 38.7241 133.36 38.8329 133.547 39.0506C133.749 39.2682 133.85 39.5481 133.85 39.8901C133.85 40.2321 133.718 40.512 133.453 40.7297C133.205 40.9473 132.878 41.0562 132.474 41.0562H132.054ZM142.091 41.1494C140.956 41.1494 139.937 40.8696 139.036 40.3099C138.134 39.7346 137.419 38.965 136.89 38.0011C136.377 37.0216 136.121 35.9178 136.121 34.6896C136.121 33.4613 136.4 32.3575 136.96 31.378C137.535 30.3985 138.305 29.6289 139.269 29.0692C140.248 28.494 141.345 28.2063 142.557 28.2063C143.77 28.2063 144.858 28.494 145.822 29.0692C146.786 29.6289 147.548 30.3985 148.108 31.378C148.683 32.3575 148.97 33.4613 148.97 34.6896V39.8901C148.97 40.2321 148.854 40.5198 148.621 40.753C148.403 40.9706 148.123 41.0795 147.781 41.0795C147.439 41.0795 147.151 40.9706 146.918 40.753C146.701 40.5198 146.592 40.2321 146.592 39.8901V39.0272C146.048 39.6802 145.387 40.2011 144.609 40.5897C143.848 40.9629 143.008 41.1494 142.091 41.1494ZM142.557 39.0506C143.35 39.0506 144.057 38.864 144.679 38.4909C145.301 38.1022 145.791 37.5813 146.149 36.9284C146.506 36.2598 146.685 35.5136 146.685 34.6896C146.685 33.85 146.506 33.1037 146.149 32.4507C145.791 31.7822 145.301 31.2614 144.679 30.8882C144.057 30.4996 143.35 30.3052 142.557 30.3052C141.78 30.3052 141.072 30.4996 140.435 30.8882C139.813 31.2614 139.316 31.7822 138.942 32.4507C138.585 33.1037 138.406 33.85 138.406 34.6896C138.406 35.5136 138.585 36.2598 138.942 36.9284C139.316 37.5813 139.813 38.1022 140.435 38.4909C141.072 38.864 141.78 39.0506 142.557 39.0506ZM153.677 41.0562C152.899 41.0562 152.511 40.6675 152.511 39.8901V29.4657C152.511 28.6883 152.899 28.2996 153.677 28.2996C154.454 28.2996 154.843 28.6883 154.843 29.4657V29.9088C155.309 29.3646 155.877 28.9371 156.545 28.6261C157.229 28.3152 157.968 28.1597 158.761 28.1597C159.693 28.1597 160.385 28.3152 160.836 28.6261C161.303 28.9215 161.481 29.2791 161.373 29.6989C161.295 30.0254 161.139 30.243 160.906 30.3519C160.673 30.4452 160.401 30.4607 160.09 30.3985C159.095 30.1964 158.201 30.1808 157.408 30.3519C156.615 30.5229 155.985 30.8416 155.519 31.308C155.068 31.7744 154.843 32.3652 154.843 33.0804V39.8901C154.843 40.6675 154.454 41.0562 153.677 41.0562ZM168.493 41.1494C167.405 41.1494 166.394 40.9862 165.461 40.6597C164.544 40.3177 163.829 39.8901 163.316 39.377C163.083 39.1283 162.982 38.8484 163.013 38.5375C163.059 38.211 163.215 37.9467 163.479 37.7446C163.79 37.4958 164.093 37.3948 164.389 37.4414C164.7 37.4725 164.964 37.6047 165.182 37.8379C165.446 38.1333 165.866 38.4131 166.441 38.6774C167.032 38.9262 167.685 39.0506 168.4 39.0506C169.302 39.0506 169.986 38.9029 170.452 38.6075C170.934 38.3121 171.183 37.9312 171.198 37.4647C171.214 36.9983 170.988 36.5941 170.522 36.2521C170.071 35.91 169.239 35.6302 168.027 35.4125C166.456 35.1016 165.314 34.6351 164.599 34.0132C163.899 33.3914 163.549 32.6295 163.549 31.7278C163.549 30.9349 163.782 30.2819 164.249 29.7688C164.715 29.2402 165.314 28.8516 166.044 28.6028C166.775 28.3385 167.537 28.2063 168.33 28.2063C169.356 28.2063 170.265 28.3696 171.058 28.6961C171.851 29.0226 172.481 29.4734 172.947 30.0487C173.165 30.2975 173.266 30.5618 173.251 30.8416C173.235 31.1059 173.103 31.3313 172.854 31.5179C172.605 31.6889 172.31 31.7433 171.968 31.6812C171.626 31.619 171.338 31.479 171.105 31.2614C170.716 30.8882 170.297 30.6317 169.846 30.4918C169.395 30.3519 168.874 30.2819 168.283 30.2819C167.599 30.2819 167.016 30.3985 166.534 30.6317C166.068 30.8649 165.835 31.207 165.835 31.6578C165.835 31.9377 165.904 32.1942 166.044 32.4274C166.2 32.6451 166.495 32.8472 166.931 33.0338C167.366 33.2048 168.003 33.3758 168.843 33.5468C170.6 33.8889 171.812 34.3786 172.481 35.016C173.165 35.6379 173.507 36.4075 173.507 37.3248C173.507 38.04 173.313 38.6852 172.924 39.2604C172.551 39.8357 171.991 40.2943 171.245 40.6364C170.514 40.9784 169.597 41.1494 168.493 41.1494Z" fill="white"/>
<path d="M23.744 4.53224C23.9183 4.27431 24.3199 4.37827 24.3472 4.68836L25.3222 15.7825C25.4341 17.0557 26.486 18.041 27.7639 18.0694L60.5 18.7975H26.6074C25.2891 18.7975 24.1959 17.7764 24.1062 16.4611L23.5514 8.32849C23.5297 8.00996 23.1138 7.90425 22.9426 8.17376L18.0658 15.8521C16.8793 17.7201 14.9305 18.9708 12.7382 19.2712L5.11105 20.3165C4.64201 20.3808 4.39058 20.9028 4.6327 21.3096L10.4777 31.1306C11.5915 33.0021 11.654 35.3176 10.6427 37.2464L6.80192 44.5718L9.66555 36.5538C10.2065 35.0392 9.98807 33.3571 9.07828 32.0309L0.631239 19.7176C0.347074 19.3034 0.610457 18.7361 1.11027 18.6858L11.6269 17.6284C13.8487 17.4051 15.8563 16.206 17.1064 14.3558L23.744 4.53224Z" fill="white"/>
</g>
<defs>
<clipPath id="clip0">
<rect width="178" height="43.8732" fill="white" transform="translate(0 3.76025)"/>
</clipPath>
</defs>
</svg>
