<svg width="178" height="50" viewBox="0 0 178 50" fill="none" xmlns="http://www.w3.org/2000/svg">
<g clip-path="url(#clip0)">
<path d="M17.0304 41.0564C16.7661 41.0564 16.5484 40.9709 16.3774 40.7999C16.2064 40.6289 16.1208 40.4112 16.1208 40.1469L16.1208 23.7523C16.1208 23.488 16.2064 23.2704 16.3774 23.0993C16.5484 22.9283 16.7661 22.8428 17.0304 22.8428H21.6945C22.845 22.8428 23.8634 23.0993 24.7496 23.6124C25.6358 24.1099 26.3276 24.8018 26.8251 25.688C27.3226 26.5742 27.5714 27.6003 27.5714 28.7663C27.5714 29.9013 27.3226 30.9118 26.8251 31.798C26.3276 32.6687 25.6358 33.3605 24.7496 33.8736C23.8634 34.3711 22.845 34.6199 21.6945 34.6199H17.9399L17.9399 40.1469C17.9399 40.4112 17.8544 40.6289 17.6833 40.7999C17.5123 40.9709 17.2947 41.0564 17.0304 41.0564ZM17.9399 32.8708H21.6945C22.4874 32.8708 23.1948 32.6998 23.8167 32.3577C24.4386 32.0002 24.9206 31.5104 25.2626 30.8885C25.6202 30.2666 25.799 29.5592 25.799 28.7663C25.799 27.9423 25.6202 27.2194 25.2626 26.5975C24.9206 25.9756 24.4386 25.4859 23.8167 25.1283C23.1948 24.7707 22.4874 24.5919 21.6945 24.5919H17.9399V32.8708ZM35.4952 41.173C34.2359 41.173 33.1165 40.901 32.137 40.3568C31.1731 39.7971 30.4113 39.0275 29.8516 38.048C29.3074 37.0686 29.0353 35.9492 29.0353 34.6898C29.0353 33.415 29.2919 32.2955 29.8049 31.3316C30.3335 30.3521 31.0565 29.5826 31.9738 29.0229C32.891 28.4632 33.9483 28.1833 35.1454 28.1833C36.327 28.1833 37.3531 28.4554 38.2238 28.9995C39.11 29.5281 39.794 30.2666 40.276 31.215C40.758 32.1634 40.9989 33.2439 40.9989 34.4566C40.9989 34.7054 40.9212 34.9075 40.7657 35.063C40.6103 35.2029 40.4081 35.2728 40.1594 35.2728L30.7378 35.2728C30.831 36.1124 31.0876 36.8587 31.5073 37.5117C31.9271 38.1491 32.479 38.6544 33.1631 39.0275C33.8472 39.3851 34.6246 39.5639 35.4952 39.5639C36.0549 39.5639 36.6146 39.4706 37.1743 39.284C37.7496 39.0819 38.2082 38.8332 38.5502 38.5378C38.7213 38.3978 38.9156 38.3279 39.1333 38.3279C39.3509 38.3123 39.5375 38.3668 39.693 38.4911C39.8951 38.6777 39.9961 38.8798 39.9961 39.0975C40.0117 39.3151 39.9262 39.5017 39.7396 39.6572C39.2266 40.0925 38.5736 40.4579 37.7807 40.7533C36.9878 41.0331 36.2259 41.173 35.4952 41.173ZM35.1454 29.7924C33.9483 29.7924 32.961 30.1656 32.1836 30.9118C31.4063 31.6426 30.9399 32.5987 30.7844 33.7803L39.3198 33.7803C39.1955 32.5987 38.7601 31.6426 38.0139 30.9118C37.2831 30.1656 36.327 29.7924 35.1454 29.7924ZM44.9229 41.0564C44.3321 41.0564 44.0367 40.761 44.0367 40.1702V29.1861C44.0367 28.5953 44.3321 28.2999 44.9229 28.2999C45.5137 28.2999 45.8091 28.5953 45.8091 29.1861V30.1889C46.2755 29.567 46.8507 29.0773 47.5348 28.7197C48.2189 28.3465 48.9729 28.16 49.7969 28.16C50.5121 28.16 51.064 28.261 51.4527 28.4632C51.8414 28.6653 51.9891 28.9607 51.8958 29.3493C51.8181 29.7069 51.6315 29.8935 51.3361 29.909C51.0563 29.909 50.722 29.8935 50.3333 29.8624C49.4627 29.7847 48.6853 29.878 48.0012 30.1423C47.3327 30.391 46.7963 30.7797 46.3921 31.3083C46.0034 31.8369 45.8091 32.4666 45.8091 33.1973V40.1702C45.8091 40.761 45.5137 41.0564 44.9229 41.0564ZM56.3036 41.0564C56.0704 41.0564 55.8683 40.9787 55.6973 40.8232C55.5263 40.6522 55.4408 40.4268 55.4408 40.1469V30.3288H53.9482C53.6995 30.3288 53.4974 30.2589 53.3419 30.1189C53.202 29.9635 53.132 29.7769 53.132 29.5592C53.132 29.326 53.202 29.1395 53.3419 28.9995C53.4974 28.8441 53.6995 28.7663 53.9482 28.7663H55.4408V28.3232C55.4408 26.6908 55.8605 25.3692 56.7001 24.3587C57.5396 23.3481 58.7523 22.8428 60.3381 22.8428C60.6025 22.8428 60.8201 22.9206 60.9911 23.076C61.1622 23.2315 61.2477 23.4258 61.2477 23.659C61.2477 23.8923 61.1622 24.0866 60.9911 24.2421C60.8201 24.3975 60.6025 24.4753 60.3381 24.4753C59.2809 24.4753 58.4958 24.8329 57.9827 25.548C57.4852 26.2477 57.2365 27.1416 57.2365 28.2299V28.7663H60.035C60.2837 28.7663 60.4781 28.8441 60.618 28.9995C60.7735 29.1395 60.8512 29.326 60.8512 29.5592C60.8512 29.7769 60.7735 29.9635 60.618 30.1189C60.4781 30.2589 60.2837 30.3288 60.035 30.3288H57.2365V40.1469C57.2365 40.4268 57.151 40.6522 56.9799 40.8232C56.8245 40.9787 56.599 41.0564 56.3036 41.0564ZM68.6096 41.173C67.3658 41.173 66.2542 40.8932 65.2747 40.3335C64.2952 39.7738 63.5256 39.0042 62.9659 38.0247C62.4062 37.0452 62.1264 35.9336 62.1264 34.6898C62.1264 33.4305 62.4062 32.3111 62.9659 31.3316C63.5256 30.3521 64.2952 29.5826 65.2747 29.0229C66.2542 28.4632 67.3658 28.1833 68.6096 28.1833C69.8534 28.1833 70.9572 28.4632 71.9212 29.0229C72.9006 29.5826 73.6702 30.3521 74.2299 31.3316C74.7896 32.3111 75.0772 33.4305 75.0928 34.6898C75.0928 35.9336 74.8052 37.0452 74.2299 38.0247C73.6702 39.0042 72.9006 39.7738 71.9212 40.3335C70.9572 40.8932 69.8534 41.173 68.6096 41.173ZM68.6096 39.5406C69.5113 39.5406 70.3198 39.3307 71.035 38.9109C71.7501 38.4911 72.3098 37.9159 72.7141 37.1852C73.1183 36.4544 73.3204 35.6227 73.3204 34.6898C73.3204 33.757 73.1183 32.9252 72.7141 32.1945C72.3098 31.4482 71.7501 30.8652 71.035 30.4454C70.3198 30.0256 69.5113 29.8158 68.6096 29.8158C67.7078 29.8158 66.8994 30.0256 66.1842 30.4454C65.469 30.8652 64.9016 31.4482 64.4818 32.1945C64.0776 32.9252 63.8755 33.757 63.8755 34.6898C63.8755 35.6227 64.0776 36.4544 64.4818 37.1852C64.9016 37.9159 65.469 38.4911 66.1842 38.9109C66.8994 39.3307 67.7078 39.5406 68.6096 39.5406ZM79.4715 41.0564C78.8807 41.0564 78.5853 40.761 78.5853 40.1702V29.1861C78.5853 28.5953 78.8807 28.2999 79.4715 28.2999C80.0623 28.2999 80.3577 28.5953 80.3577 29.1861V30.1889C80.8241 29.567 81.3993 29.0773 82.0834 28.7197C82.7675 28.3465 83.5215 28.16 84.3455 28.16C85.0607 28.16 85.6126 28.261 86.0013 28.4632C86.39 28.6653 86.5377 28.9607 86.4444 29.3493C86.3667 29.7069 86.1801 29.8935 85.8847 29.909C85.6049 29.909 85.2706 29.8935 84.8819 29.8624C84.0113 29.7847 83.2339 29.878 82.5498 30.1423C81.8813 30.391 81.3449 30.7797 80.9407 31.3083C80.552 31.8369 80.3577 32.4666 80.3577 33.1973V40.1702C80.3577 40.761 80.0623 41.0564 79.4715 41.0564ZM90.1759 41.0564C89.8961 41.0564 89.6706 40.9787 89.4996 40.8232C89.3442 40.6522 89.2664 40.4345 89.2664 40.1702V29.2094C89.2664 28.9451 89.3442 28.7275 89.4996 28.5564C89.6706 28.3854 89.8961 28.2999 90.1759 28.2999C90.4402 28.2999 90.6501 28.3854 90.8056 28.5564C90.9766 28.7275 91.0621 28.9451 91.0621 29.2094V29.7225C91.4975 29.225 92.0105 28.8441 92.6013 28.5798C93.1921 28.2999 93.8451 28.16 94.5603 28.16C95.4309 28.16 96.2005 28.3543 96.869 28.743C97.5531 29.1317 98.0973 29.6681 98.5015 30.3521C98.9368 29.6681 99.5198 29.1317 100.251 28.743C100.981 28.3543 101.798 28.16 102.699 28.16C103.617 28.16 104.425 28.3776 105.125 28.813C105.84 29.2483 106.392 29.8624 106.78 30.6553C107.185 31.4482 107.387 32.3811 107.387 33.4538V40.1702C107.387 40.4345 107.301 40.6522 107.13 40.8232C106.975 40.9787 106.765 41.0564 106.501 41.0564C106.236 41.0564 106.019 40.9787 105.848 40.8232C105.677 40.6522 105.591 40.4345 105.591 40.1702V33.4538C105.591 32.35 105.303 31.4793 104.728 30.8419C104.153 30.1889 103.414 29.8624 102.513 29.8624C101.549 29.8624 100.756 30.1889 100.134 30.8419C99.5276 31.4793 99.2322 32.3344 99.2478 33.4072V33.4538V40.1702C99.2478 40.4345 99.1622 40.6522 98.9912 40.8232C98.8358 40.9787 98.6259 41.0564 98.3616 41.0564C98.0973 41.0564 97.8796 40.9787 97.7086 40.8232C97.5376 40.6522 97.4521 40.4345 97.4521 40.1702V33.4538C97.4521 32.35 97.1644 31.4793 96.5892 30.8419C96.0139 30.1889 95.2754 29.8624 94.3737 29.8624C93.4098 29.8624 92.6169 30.1811 91.995 30.8186C91.3731 31.4405 91.0621 32.2567 91.0621 33.2673V40.1702C91.0621 40.4345 90.9766 40.6522 90.8056 40.8232C90.6501 40.9787 90.4402 41.0564 90.1759 41.0564ZM117.374 41.2896C116.379 41.2896 115.431 41.1342 114.529 40.8232C113.627 40.5123 112.842 40.0769 112.174 39.5172C111.505 38.9575 111.015 38.3123 110.705 37.5816C110.549 37.2551 110.549 36.952 110.705 36.6721C110.876 36.3923 111.155 36.2135 111.544 36.1357C111.824 36.0735 112.096 36.1202 112.36 36.2756C112.64 36.4156 112.85 36.6332 112.99 36.9286C113.177 37.3173 113.48 37.6749 113.899 38.0014C114.335 38.3279 114.856 38.5922 115.462 38.7943C116.068 38.9964 116.706 39.0975 117.374 39.0975C118.121 39.0975 118.805 38.9809 119.427 38.7477C120.064 38.5145 120.577 38.1802 120.966 37.7449C121.354 37.294 121.549 36.7421 121.549 36.0891C121.549 35.2651 121.222 34.5266 120.569 33.8736C119.932 33.2206 118.875 32.8164 117.398 32.6609C115.47 32.4743 113.954 31.9069 112.85 30.9585C111.746 30.0101 111.194 28.8363 111.194 27.437C111.194 26.4109 111.482 25.5403 112.057 24.8251C112.632 24.1099 113.41 23.5658 114.389 23.1926C115.384 22.8195 116.488 22.6329 117.701 22.6329C119.116 22.6329 120.274 22.9206 121.176 23.4958C122.077 24.0711 122.824 24.8329 123.414 25.7812C123.632 26.1233 123.718 26.4498 123.671 26.7607C123.64 27.0561 123.492 27.2893 123.228 27.4604C122.932 27.6469 122.614 27.6858 122.272 27.577C121.93 27.4681 121.673 27.266 121.502 26.9706C121.113 26.3021 120.608 25.7812 119.986 25.4081C119.38 25.035 118.595 24.8406 117.631 24.8251C116.48 24.8095 115.516 25.0272 114.739 25.4781C113.962 25.9134 113.573 26.5897 113.573 27.507C113.573 27.9734 113.69 28.4243 113.923 28.8596C114.172 29.2794 114.615 29.6447 115.252 29.9557C115.905 30.2666 116.838 30.4843 118.051 30.6087C119.901 30.7952 121.339 31.3627 122.365 32.3111C123.407 33.2439 123.927 34.4799 123.927 36.0191C123.927 36.9053 123.741 37.6749 123.368 38.3279C123.01 38.9809 122.52 39.5328 121.899 39.9837C121.292 40.419 120.593 40.7455 119.8 40.9631C119.022 41.1808 118.214 41.2896 117.374 41.2896ZM132.054 41.0564C131.277 41.0564 130.577 40.8621 129.955 40.4734C129.333 40.0692 128.844 39.525 128.486 38.8409C128.129 38.1569 127.95 37.3873 127.95 36.5322V30.7719H126.877C126.55 30.7719 126.286 30.6786 126.084 30.4921C125.882 30.3055 125.781 30.0723 125.781 29.7924C125.781 29.4815 125.882 29.2327 126.084 29.0462C126.286 28.8596 126.55 28.7663 126.877 28.7663H127.95V25.4081C127.95 25.0661 128.059 24.7862 128.276 24.5686C128.494 24.3509 128.774 24.2421 129.116 24.2421C129.458 24.2421 129.738 24.3509 129.955 24.5686C130.173 24.7862 130.282 25.0661 130.282 25.4081V28.7663H132.264C132.591 28.7663 132.855 28.8596 133.057 29.0462C133.259 29.2327 133.36 29.4815 133.36 29.7924C133.36 30.0723 133.259 30.3055 133.057 30.4921C132.855 30.6786 132.591 30.7719 132.264 30.7719H130.282V36.5322C130.282 37.1541 130.453 37.6749 130.795 38.0947C131.137 38.5145 131.557 38.7243 132.054 38.7243H132.847C133.127 38.7243 133.36 38.8332 133.547 39.0508C133.749 39.2685 133.85 39.5483 133.85 39.8904C133.85 40.2324 133.718 40.5123 133.453 40.7299C133.205 40.9476 132.878 41.0564 132.474 41.0564H132.054ZM142.091 41.1497C140.956 41.1497 139.937 40.8699 139.036 40.3102C138.134 39.7349 137.419 38.9653 136.89 38.0014C136.377 37.0219 136.121 35.9181 136.121 34.6898C136.121 33.4616 136.4 32.3577 136.96 31.3783C137.535 30.3988 138.305 29.6292 139.269 29.0695C140.248 28.4942 141.345 28.2066 142.557 28.2066C143.77 28.2066 144.858 28.4942 145.822 29.0695C146.786 29.6292 147.548 30.3988 148.108 31.3783C148.683 32.3577 148.97 33.4616 148.97 34.6898V39.8904C148.97 40.2324 148.854 40.52 148.621 40.7533C148.403 40.9709 148.123 41.0797 147.781 41.0797C147.439 41.0797 147.151 40.9709 146.918 40.7533C146.701 40.52 146.592 40.2324 146.592 39.8904V39.0275C146.048 39.6805 145.387 40.2013 144.609 40.59C143.848 40.9631 143.008 41.1497 142.091 41.1497ZM142.557 39.0508C143.35 39.0508 144.057 38.8643 144.679 38.4911C145.301 38.1024 145.791 37.5816 146.149 36.9286C146.506 36.2601 146.685 35.5138 146.685 34.6898C146.685 33.8503 146.506 33.104 146.149 32.451C145.791 31.7825 145.301 31.2617 144.679 30.8885C144.057 30.4998 143.35 30.3055 142.557 30.3055C141.78 30.3055 141.072 30.4998 140.435 30.8885C139.813 31.2617 139.316 31.7825 138.942 32.451C138.585 33.104 138.406 33.8503 138.406 34.6898C138.406 35.5138 138.585 36.2601 138.942 36.9286C139.316 37.5816 139.813 38.1024 140.435 38.4911C141.072 38.8643 141.78 39.0508 142.557 39.0508ZM153.677 41.0564C152.899 41.0564 152.511 40.6677 152.511 39.8904V29.4659C152.511 28.6886 152.899 28.2999 153.677 28.2999C154.454 28.2999 154.843 28.6886 154.843 29.4659V29.909C155.309 29.3649 155.877 28.9373 156.545 28.6264C157.229 28.3155 157.968 28.16 158.761 28.16C159.693 28.16 160.385 28.3155 160.836 28.6264C161.303 28.9218 161.481 29.2794 161.373 29.6992C161.295 30.0256 161.139 30.2433 160.906 30.3521C160.673 30.4454 160.401 30.461 160.09 30.3988C159.095 30.1967 158.201 30.1811 157.408 30.3521C156.615 30.5232 155.985 30.8419 155.519 31.3083C155.068 31.7747 154.843 32.3655 154.843 33.0807V39.8904C154.843 40.6677 154.454 41.0564 153.677 41.0564ZM168.493 41.1497C167.405 41.1497 166.394 40.9865 165.461 40.66C164.544 40.3179 163.829 39.8904 163.316 39.3773C163.083 39.1286 162.982 38.8487 163.013 38.5378C163.059 38.2113 163.215 37.947 163.479 37.7449C163.79 37.4961 164.093 37.395 164.389 37.4417C164.7 37.4728 164.964 37.6049 165.182 37.8381C165.446 38.1335 165.866 38.4134 166.441 38.6777C167.032 38.9265 167.685 39.0508 168.4 39.0508C169.302 39.0508 169.986 38.9031 170.452 38.6077C170.934 38.3123 171.183 37.9314 171.198 37.465C171.214 36.9986 170.988 36.5944 170.522 36.2523C170.071 35.9103 169.239 35.6304 168.027 35.4128C166.456 35.1018 165.314 34.6354 164.599 34.0135C163.899 33.3916 163.549 32.6298 163.549 31.7281C163.549 30.9352 163.782 30.2822 164.249 29.7691C164.715 29.2405 165.314 28.8518 166.044 28.6031C166.775 28.3388 167.537 28.2066 168.33 28.2066C169.356 28.2066 170.265 28.3699 171.058 28.6964C171.851 29.0229 172.481 29.4737 172.947 30.049C173.165 30.2977 173.266 30.562 173.251 30.8419C173.235 31.1062 173.103 31.3316 172.854 31.5182C172.605 31.6892 172.31 31.7436 171.968 31.6814C171.626 31.6192 171.338 31.4793 171.105 31.2617C170.716 30.8885 170.297 30.632 169.846 30.4921C169.395 30.3521 168.874 30.2822 168.283 30.2822C167.599 30.2822 167.016 30.3988 166.534 30.632C166.068 30.8652 165.835 31.2072 165.835 31.6581C165.835 31.938 165.904 32.1945 166.044 32.4277C166.2 32.6454 166.495 32.8475 166.931 33.034C167.366 33.2051 168.003 33.3761 168.843 33.5471C170.6 33.8891 171.812 34.3789 172.481 35.0163C173.165 35.6382 173.507 36.4078 173.507 37.3251C173.507 38.0403 173.313 38.6855 172.924 39.2607C172.551 39.836 171.991 40.2946 171.245 40.6367C170.514 40.9787 169.597 41.1497 168.493 41.1497Z" fill="url(#paint0_linear)"/>
<path d="M23.744 4.53244C23.9183 4.27451 24.3199 4.37847 24.3472 4.68856L25.3188 15.7438C25.4322 17.0334 26.5088 18.0247 27.8035 18.0313L178.5 18.7977H26.6074C25.2891 18.7977 24.1959 17.7766 24.1062 16.4613L23.5514 8.32868C23.5297 8.01016 23.1138 7.90445 22.9426 8.17396L18.0658 15.8523C16.8793 17.7203 14.9305 18.971 12.7382 19.2714L5.11105 20.3167C4.64201 20.381 4.39058 20.903 4.6327 21.3098L10.4777 31.1308C11.5915 33.0023 11.654 35.3178 10.6427 37.2466L6.80192 44.572L9.66555 36.554C10.2065 35.0394 9.98807 33.3573 9.07828 32.0311L0.631239 19.7178C0.347074 19.3036 0.610457 18.7363 1.11027 18.686L11.6269 17.6286C13.8487 17.4052 15.8563 16.2062 17.1064 14.356L23.744 4.53244Z" fill="url(#paint1_linear)"/>
</g>
<defs>
<linearGradient id="paint0_linear" x1="87.4997" y1="27.5003" x2="87.4997" y2="60.5003" gradientUnits="userSpaceOnUse">
<stop stop-color="white"/>
<stop offset="1" stop-color="white" stop-opacity="0"/>
</linearGradient>
<linearGradient id="paint1_linear" x1="23" y1="20.5002" x2="61.5" y2="22.0002" gradientUnits="userSpaceOnUse">
<stop stop-color="#7FCCC6"/>
<stop offset="1" stop-color="#7FCCC6" stop-opacity="0"/>
</linearGradient>
<clipPath id="clip0">
<rect width="178" height="43.8732" fill="white" transform="translate(0 3.76045)"/>
</clipPath>
</defs>
</svg>
